SplineFontDB: 3.0
FontName: UniOl
FullName: UniOl
FamilyName: UniOl
Weight: Regular
Copyright: Copyright (c) 2020, Dr Anirban Mitra
UComments: "2020-8-7: Created with FontForge (http://fontforge.org)"
Version: 001.000
ItalicAngle: 0
UnderlinePosition: -100
UnderlineWidth: 50
Ascent: 800
Descent: 200
InvalidEm: 0
LayerCount: 2
Layer: 0 1 "Back" 1
Layer: 1 1 "Fore" 0
XUID: [1021 162 -509335450 8305068]
StyleMap: 0x0000
FSType: 0
OS2Version: 0
OS2_WeightWidthSlopeOnly: 0
OS2_UseTypoMetrics: 1
CreationTime: 1596786230
ModificationTime: 1613887822
PfmFamily: 17
TTFWeight: 400
TTFWidth: 5
LineGap: 90
VLineGap: 0
OS2TypoAscent: 0
OS2TypoAOffset: 1
OS2TypoDescent: 0
OS2TypoDOffset: 1
OS2TypoLinegap: 90
OS2WinAscent: 0
OS2WinAOffset: 1
OS2WinDescent: 0
OS2WinDOffset: 1
HheadAscent: 0
HheadAOffset: 1
HheadDescent: 0
HheadDOffset: 1
OS2Vendor: 'PfEd'
MarkAttachClasses: 1
DEI: 91125

StartChar: uni1C50
Encoding: 256 7248 0
Width: 1251
VWidth: 2048
Flags: W
LayerCount: 2
Fore
SplineSet
458 408 m 0,0,1
 458 518 458 518 502 598 c 128,-1,2
 546 678 546 678 624 712 c 0,3,4
 673 733 673 733 734 734 c 256,5,6
 855 735 855 735 932 647 c 0,7,8
 1011 557 1011 557 1011 408 c 0,9,10
 1011 297 1011 297 967 217 c 0,11,12
 924 139 924 139 845 102 c 0,13,14
 793 78 793 78 734 78 c 256,15,16
 611 79 611 79 536.27734375 167.703125 c 0,17,18
 458 260.62601286 458 260.62601286 458 408 c 0,0,1
548.0078125 407.8984375 m 256,19,20
 548.0078125 364.717121438 548.0078125 364.717121438 555.427792425 326.299593674 c 128,-1,21
 562.84777235 287.882065909 562.84777235 287.882065909 577.076281498 256.193211752 c 128,-1,22
 591.304790647 224.504357596 591.304790647 224.504357596 612.699235091 200.048900718 c 128,-1,23
 634.093679535 175.59344384 634.093679535 175.59344384 661.40234375 160.61328125 c 0,24,25
 695.4765625 141.921875 695.4765625 141.921875 734.01953125 141.921875 c 0,26,27
 814.103139557 141.921875 814.103139557 141.921875 866.40625 213.89453125 c 0,28,29
 920.58984375 288.454861111 920.58984375 288.454861111 920.58984375 407.8984375 c 0,30,31
 920.58984375 494.894815453 920.58984375 494.894815453 891.262715311 559.296249024 c 128,-1,32
 861.935586871 623.697682596 861.935586871 623.697682596 807.1953125 653.03515625 c 0,33,34
 773.12109375 671.296875 773.12109375 671.296875 734.01953125 671.296875 c 0,35,36
 654.203862028 671.296875 654.203862028 671.296875 602.19140625 600.61328125 c 0,37,38
 548.0078125 526.979166667 548.0078125 526.979166667 548.0078125 407.8984375 c 256,19,20
EndSplineSet
Validated: 33
EndChar

StartChar: uni1C51
Encoding: 257 7249 1
Width: 1098
VWidth: 2048
Flags: W
LayerCount: 2
Fore
SplineSet
632.6875 626 m 5,0,1
 603.4375 561 603.4375 561 603.4375 451 c 0,2,3
 603.4375 336.634318769 603.4375 336.634318769 651.988155008 259.09724585 c 128,-1,4
 700.538810015 181.56017293 700.538810015 181.56017293 786.8125 126.25 c 0,5,6
 850.375 85.5 850.375 85.5 939.25 53.5 c 1,7,-1
 939.25 51 l 1,8,-1
 899.875 -11 l 1,9,10
 813.447305858 13.6232746844 813.447305858 13.6232746844 744.195249655 53.9319158587 c 128,-1,11
 674.943193452 94.240557033 674.943193452 94.240557033 621.621999076 154.953544728 c 128,-1,12
 568.300804699 215.666532423 568.300804699 215.666532423 539.875 292.5 c 0,13,14
 512.3125 367 512.3125 367 512.3125 455 c 0,15,16
 512.3125 567.5 512.3125 567.5 554.5 679.25 c 0,17,18
 568.5625 716.5 568.5625 716.5 588.25 750.5 c 1,19,-1
 591.625 750.5 l 1,20,-1
 862.75 572 l 1,21,-1
 866.125 572 l 1,22,-1
 866.125 730.5 l 1,23,-1
 955.5625 730.5 l 1,24,-1
 955.5625 421 l 1,25,-1
 952.1875 421 l 1,26,-1
 636.0625 626 l 1,27,-1
 632.6875 626 l 5,0,1
EndSplineSet
Validated: 1
EndChar

StartChar: uni1C52
Encoding: 258 7250 2
Width: 1070
VWidth: 2048
Flags: W
LayerCount: 2
Fore
SplineSet
770.799804688 90.2001953125 m 1,0,-1
 841 34.400390625 l 1,1,2
 788.200195312 -65.2001953125 788.200195312 -65.2001953125 716.5 -113.200195312 c 128,-1,3
 644.799804688 -161.200195312 644.799804688 -161.200195312 555.400390625 -161.200195312 c 0,4,5
 469.056707179 -161.200195312 469.056707179 -161.200195312 405.544501373 -123.632170969 c 128,-1,6
 342.032295567 -86.0641466253 342.032295567 -86.0641466253 310.599609375 -23.2001953125 c 0,7,8
 289 20 289 20 289 72.7998046875 c 0,9,10
 289 115.140706743 289 115.140706743 301.253361591 147.009742077 c 128,-1,11
 313.506723181 178.87877741 313.506723181 178.87877741 338.5 216.799804688 c 0,12,13
 364.599609375 256.400390625 364.599609375 256.400390625 406.299804688 305.299804688 c 128,-1,14
 448 354.200195312 448 354.200195312 508.599609375 420.799804688 c 1,15,16
 405.59156555 464.706990239 405.59156555 464.706990239 380.5 545 c 0,17,18
 373 569 373 569 373 592.400390625 c 0,19,20
 373 643.144531827 373 643.144531827 397.049325525 679.854855734 c 128,-1,21
 421.098651049 716.56517964 421.098651049 716.56517964 460.900390625 735.5 c 0,22,23
 491.799804688 750.200195312 491.799804688 750.200195312 535.599609375 750.200195312 c 0,24,25
 574.917085587 750.200195312 574.917085587 750.200195312 606.391065771 737.843550615 c 128,-1,26
 637.865045956 725.486905918 637.865045956 725.486905918 658.566524223 703.892998487 c 128,-1,27
 679.268002491 682.299091057 679.268002491 682.299091057 690.700195312 652.400390625 c 0,28,29
 702.400390625 621.799804688 702.400390625 621.799804688 702.400390625 584.599609375 c 0,30,31
 702.400390625 531.083216938 702.400390625 531.083216938 671.5 481.400390625 c 0,32,33
 650.916332099 448.303870672 650.916332099 448.303870672 582.400390625 368.599609375 c 0,34,35
 524.799804688 302 524.799804688 302 486.700195312 256.400390625 c 128,-1,36
 448.599609375 210.799804688 448.599609375 210.799804688 425.799804688 177.5 c 128,-1,37
 403 144.200195312 403 144.200195312 393.400390625 119.299804688 c 128,-1,38
 383.799804688 94.400390625 383.799804688 94.400390625 383.799804688 69.2001953125 c 0,39,40
 383.799804688 -0.842569834608 383.799804688 -0.842569834608 430.004342549 -38.4212849173 c 128,-1,41
 476.208880411 -76 476.208880411 -76 551.200195312 -76 c 0,42,43
 610.059451876 -76 610.059451876 -76 650.482255442 -52.2459155366 c 128,-1,44
 690.905059008 -28.4918310732 690.905059008 -28.4918310732 723.099609375 14.2998046875 c 0,45,46
 746.799804688 45.7998046875 746.799804688 45.7998046875 767.799804688 90.2001953125 c 1,47,-1
 770.799804688 90.2001953125 l 1,0,-1
536.799804688 669.200195312 m 0,48,49
 500.936569162 669.200195312 500.936569162 669.200195312 479.568382237 646.964303947 c 128,-1,50
 458.200195312 624.728412582 458.200195312 624.728412582 458.200195312 588.200195312 c 0,51,52
 458.200195312 542.1073273 458.200195312 542.1073273 506.799804688 507.799804688 c 0,53,54
 527.200195312 493.400390625 527.200195312 493.400390625 562 480.799804688 c 0,55,56
 562.530016504 481.445043801 562.530016504 481.445043801 569.598639069 489.959108309 c 128,-1,57
 576.667261634 498.473172818 576.667261634 498.473172818 577.877482388 500.110274962 c 128,-1,58
 579.087703143 501.747377106 579.087703143 501.747377106 585.116229875 509.553872554 c 128,-1,59
 591.144756608 517.360368003 591.144756608 517.360368003 592.724351169 520.529465886 c 128,-1,60
 594.303945731 523.698563769 594.303945731 523.698563769 598.772894873 531.075023073 c 128,-1,61
 603.241844014 538.451482378 603.241844014 538.451482378 604.671330625 543.430108915 c 128,-1,62
 606.100817236 548.408735452 606.100817236 548.408735452 608.490707029 555.632691528 c 128,-1,63
 610.880596821 562.856647604 610.880596821 562.856647604 611.640493723 569.922335712 c 128,-1,64
 612.400390625 576.988023819 612.400390625 576.988023819 612.400390625 584.599609375 c 0,65,66
 612.400390625 622.131205747 612.400390625 622.131205747 592.346388209 645.66570053 c 128,-1,67
 572.292385793 669.200195312 572.292385793 669.200195312 536.799804688 669.200195312 c 0,48,49
EndSplineSet
Validated: 1
EndChar

StartChar: uni1C53
Encoding: 259 7251 3
Width: 1119
VWidth: 2048
Flags: W
LayerCount: 2
Fore
SplineSet
634 594 m 4,0,1
 634 526.301341897 634 526.301341897 587.200195312 462.599609375 c 1,2,-1
 706 420.599609375 l 1,3,-1
 709.599609375 420.599609375 l 1,4,-1
 709.599609375 744 l 1,5,-1
 803.200195312 744 l 1,6,-1
 803.200195312 298.799804688 l 1,7,-1
 799.599609375 298.799804688 l 1,8,-1
 530.200195312 399 l 1,9,10
 447.342919785 313.840769285 447.342919785 313.840769285 414.700195312 262.799804688 c 0,11,12
 385.599609375 217.29741478 385.599609375 217.29741478 385.599609375 172.200195312 c 0,13,14
 385.599609375 122.84490193 385.599609375 122.84490193 409.048697427 90.1032553848 c 128,-1,15
 432.497785479 57.361608839 432.497785479 57.361608839 475.599609375 30.900390625 c 0,16,17
 530.902396017 -3.05172398935 530.902396017 -3.05172398935 603.448728531 -25.1666534047 c 128,-1,18
 675.995061044 -47.2815828201 675.995061044 -47.2815828201 781 -68.400390625 c 1,19,-1
 781 -71.400390625 l 1,20,-1
 738.400390625 -145.799804688 l 1,21,22
 520.247016313 -110.058430789 520.247016313 -110.058430789 408.700195312 -31.7998046875 c 0,23,24
 290.799804688 50.9163364302 290.799804688 50.9163364302 290.799804688 177 c 0,25,26
 290.799804688 231.631938934 290.799804688 231.631938934 319.900390625 285.599609375 c 0,27,28
 353.952852707 348.752657394 353.952852707 348.752657394 439 433.799804688 c 1,29,30
 336.016480925 478.427672451 336.016480925 478.427672451 311.5 555.900390625 c 0,31,32
 304 579.599609375 304 579.599609375 304 603 c 0,33,34
 304 653.744391118 304 653.744391118 328.049443942 690.455275336 c 128,-1,35
 352.098887884 727.166159553 352.098887884 727.166159553 391.900390625 746.099609375 c 0,36,37
 422.799804688 760.799804688 422.799804688 760.799804688 466.599609375 760.799804688 c 0,38,39
 505.982808374 760.799804688 505.982808374 760.799804688 537.607011803 748.319056533 c 128,-1,40
 569.231215233 735.838308378 569.231215233 735.838308378 590.034936476 714.106561716 c 128,-1,41
 610.83865772 692.374815054 610.83865772 692.374815054 622.299804688 662.400390625 c 0,42,43
 634 631.799804688 634 631.799804688 634 594 c 4,0,1
467.799804688 679.799804688 m 4,44,45
 444.424647836 679.799804688 444.424647836 679.799804688 426.659541849 669.669643135 c 128,-1,46
 408.894435862 659.539481583 408.894435862 659.539481583 399.347120275 641.309165593 c 128,-1,47
 389.799804688 623.078849602 389.799804688 623.078849602 389.799804688 599.400390625 c 0,48,49
 389.799804688 572.926623617 389.799804688 572.926623617 402.860290787 555.787909653 c 128,-1,50
 415.920776886 538.64919569 415.920776886 538.64919569 440.200195312 522 c 0,51,52
 461.200195312 507.599609375 461.200195312 507.599609375 495.400390625 494.400390625 c 1,53,54
 520 523.200195312 520 523.200195312 531.700195312 546.299804688 c 128,-1,55
 543.400390625 569.400390625 543.400390625 569.400390625 543.400390625 595.200195312 c 0,56,57
 543.400390625 633.299480889 543.400390625 633.299480889 523.262545177 656.549642788 c 128,-1,58
 503.124699728 679.799804688 503.124699728 679.799804688 467.799804688 679.799804688 c 4,44,45
EndSplineSet
Validated: 1
EndChar

StartChar: uni1C54
Encoding: 260 7252 4
Width: 1073
VWidth: 2048
Flags: W
LayerCount: 2
Fore
SplineSet
762.599609375 351.400390625 m 1,0,1
 800.400390625 298.243582731 800.400390625 298.243582731 800.400390625 208.599609375 c 0,2,3
 800.400390625 129.120181485 800.400390625 129.120181485 765.25991474 72.6281458919 c 128,-1,4
 730.119438855 16.1361102992 730.119438855 16.1361102992 670.200195312 -10.400390625 c 0,5,6
 628.200195312 -29 628.200195312 -29 575.400390625 -29 c 0,7,8
 458.003021184 -29 458.003021184 -29 380.700195312 55 c 0,9,10
 297.599609375 145.297737799 297.599609375 145.297737799 297.599609375 296.799804688 c 0,11,12
 297.599609375 450.442775959 297.599609375 450.442775959 382.799804688 602.5 c 0,13,14
 475.816729801 768.507781669 475.816729801 768.507781669 646.799804688 889 c 1,15,-1
 717.599609375 833.200195312 l 1,16,-1
 717.599609375 830.799804688 l 1,17,18
 552.630285153 699.302207081 552.630285153 699.302207081 465.599609375 547 c 1,19,20
 468.973236512 466.046673803 468.973236512 466.046673803 494.677693905 406.302214175 c 128,-1,21
 520.382151297 346.557754548 520.382151297 346.557754548 569.099609375 319 c 0,22,23
 598.799804688 302.200195312 598.799804688 302.200195312 633 302.200195312 c 0,24,25
 702.032461878 302.200195312 702.032461878 302.200195312 759 351.400390625 c 1,26,-1
 762.599609375 351.400390625 l 1,0,1
717 237.400390625 m 1,27,28
 681.001627486 215.799804688 681.001627486 215.799804688 627.599609375 215.799804688 c 0,29,30
 562.948376932 215.799804688 562.948376932 215.799804688 515.541964891 247.740624144 c 128,-1,31
 468.13555285 279.6814436 468.13555285 279.6814436 439.200195312 330.099609375 c 0,32,33
 419.400390625 364.599609375 419.400390625 364.599609375 411 404.200195312 c 1,34,-1
 407.400390625 404.200195312 l 1,35,36
 393 352.142098157 393 352.142098157 393 294.400390625 c 0,37,38
 393 209.941842801 393 209.941842801 422.625763115 152.626968782 c 128,-1,39
 452.251526231 95.3120947633 452.251526231 95.3120947633 509.700195312 73.2998046875 c 0,40,41
 541.799804688 61 541.799804688 61 573.599609375 61 c 0,42,43
 626.747929298 61 626.747929298 61 660.846346019 89.3758866044 c 128,-1,44
 694.944762739 117.751773209 694.944762739 117.751773209 709.799804688 164.5 c 0,45,46
 720 196.599609375 720 196.599609375 720 235.599609375 c 1,47,-1
 717 237.400390625 l 1,27,28
EndSplineSet
Validated: 1
EndChar

StartChar: uni1C55
Encoding: 261 7253 5
Width: 1167
VWidth: 2048
Flags: W
LayerCount: 2
Fore
SplineSet
794.599609375 214 m 1,0,1
 768.253785155 201.400390625 768.253785155 201.400390625 730.400390625 201.400390625 c 0,2,3
 667.682989923 201.400390625 667.682989923 201.400390625 625.477204205 232.80696699 c 128,-1,4
 583.271418487 264.213543355 583.271418487 264.213543355 563.900390625 316.299804688 c 0,5,6
 550.400390625 352.599609375 550.400390625 352.599609375 550.400390625 397.599609375 c 0,7,8
 550.400390625 481.545960593 550.400390625 481.545960593 591.712409184 537.627871875 c 128,-1,9
 633.024427742 593.709783157 633.024427742 593.709783157 702.5 622 c 0,10,11
 752.599609375 642.400390625 752.599609375 642.400390625 818.599609375 646.599609375 c 1,12,-1
 852.799804688 567.400390625 l 1,13,-1
 851 565 l 1,14,15
 781.463140968 563.261295578 781.463140968 563.261295578 731.832923791 536.644861 c 128,-1,16
 682.202706615 510.028426422 682.202706615 510.028426422 659.900390625 462.099609375 c 0,17,18
 645.799804688 431.799804688 645.799804688 431.799804688 645.799804688 395.799804688 c 0,19,20
 645.799804688 345.444602158 645.799804688 345.444602158 672.653201338 317.222301079 c 128,-1,21
 699.506597988 289 699.506597988 289 748.400390625 289 c 0,22,23
 814.499118405 289 814.499118405 289 860 328 c 1,24,-1
 863.599609375 328 l 1,25,26
 884.599609375 272.00443038 884.599609375 272.00443038 884.599609375 218.799804688 c 0,27,28
 884.599609375 136.185764009 884.599609375 136.185764009 844.392596991 77.3232145177 c 128,-1,29
 804.185584606 18.4606650266 804.185584606 18.4606650266 738.799804688 -9.5 c 0,30,31
 693.200195312 -29 693.200195312 -29 636.799804688 -29 c 0,32,33
 498.377642463 -29 498.377642463 -29 410.900390625 86.7998046875 c 0,34,35
 322.400390625 203.95074963 322.400390625 203.95074963 322.400390625 392.799804688 c 0,36,37
 322.400390625 587.963959409 322.400390625 587.963959409 408.5 775.900390625 c 0,38,39
 436.400390625 836.799804688 436.400390625 836.799804688 472.400390625 889 c 1,40,-1
 545.599609375 831.400390625 l 1,41,-1
 545.599609375 829 l 1,42,43
 455.232315861 679.025217929 455.232315861 679.025217929 428.599609375 506.799804688 c 0,44,45
 419.599609375 448.599609375 419.599609375 448.599609375 419.599609375 391.599609375 c 0,46,47
 419.599609375 281.815367577 419.599609375 281.815367577 453.40909625 200.836016138 c 128,-1,48
 487.218583125 119.856664699 487.218583125 119.856664699 553.099609375 83.2001953125 c 0,49,50
 593 61 593 61 639.200195312 61 c 0,51,52
 691.372481835 61 691.372481835 61 729.002976966 86.0297875577 c 128,-1,53
 766.633472098 111.059575115 766.633472098 111.059575115 784.700195312 151.599609375 c 0,54,55
 797 179.200195312 797 179.200195312 797 212.200195312 c 1,56,-1
 794.599609375 214 l 1,0,1
EndSplineSet
Validated: 1
EndChar

StartChar: uni1C56
Encoding: 262 7254 6
Width: 1107
VWidth: 2048
Flags: W
LayerCount: 2
Fore
SplineSet
441.799804688 734.799804688 m 1,0,1
 432.200306238 762.399095144 432.200306238 762.399095144 426.200195312 793.599609375 c 1,2,-1
 493.400390625 834.400390625 l 1,3,-1
 497 834.400390625 l 1,4,5
 505.075728438 795.635842597 505.075728438 795.635842597 509.599609375 779.799804688 c 1,6,7
 581.537487931 816.400390625 581.537487931 816.400390625 647.599609375 816.400390625 c 0,8,9
 708.915078982 816.400390625 708.915078982 816.400390625 754.109612256 789.093074671 c 128,-1,10
 799.304145529 761.785758716 799.304145529 761.785758716 821.299804688 716.5 c 0,11,12
 836.599609375 685 836.599609375 685 836.599609375 645.400390625 c 0,13,14
 836.599609375 590.854437823 836.599609375 590.854437823 809.246991555 553.582548725 c 128,-1,15
 781.894373734 516.310659627 781.894373734 516.310659627 737.299804688 499.299804688 c 0,16,17
 708.200195312 488.200195312 708.200195312 488.200195312 675.799804688 488.200195312 c 0,18,19
 617.599609375 488.200195312 617.599609375 488.200195312 566.900390625 525.400390625 c 128,-1,20
 516.200195312 562.599609375 516.200195312 562.599609375 477.799804688 641.799804688 c 1,21,22
 392 550.551478546 392 550.551478546 392 428.799804688 c 0,23,24
 392 305.200195312 392 305.200195312 494.900390625 190 c 128,-1,25
 597.799804688 74.7998046875 597.799804688 74.7998046875 794 -28.400390625 c 1,26,-1
 794 -31.400390625 l 1,27,-1
 726.200195312 -91.400390625 l 1,28,29
 514.683895535 12.5864367076 514.683895535 12.5864367076 403.400390625 148.599609375 c 0,30,31
 295.400390625 280.599609375 295.400390625 280.599609375 295.400390625 429.400390625 c 0,32,33
 295.400390625 567.912309717 295.400390625 567.912309717 383.900390625 676.299804688 c 0,34,35
 410.599609375 709 410.599609375 709 441.799804688 734.799804688 c 1,0,1
670.400390625 569.200195312 m 0,36,37
 694.073300344 569.200195312 694.073300344 569.200195312 712.312689861 578.849325581 c 128,-1,38
 730.552079377 588.49845585 730.552079377 588.49845585 740.675942032 606.399154181 c 128,-1,39
 750.799804688 624.299852511 750.799804688 624.299852511 750.799804688 647.799804688 c 0,40,41
 750.799804688 687.273827413 750.799804688 687.273827413 723.836805036 709.837109019 c 128,-1,42
 696.873805385 732.400390625 696.873805385 732.400390625 654.799804688 732.400390625 c 0,43,44
 600.799967448 732.400390625 600.799967448 732.400390625 538.400390625 693.400390625 c 1,45,46
 566 626.799804688 566 626.799804688 600.200195312 598 c 128,-1,47
 634.400390625 569.200195312 634.400390625 569.200195312 670.400390625 569.200195312 c 0,36,37
EndSplineSet
Validated: 1
EndChar

StartChar: uni1C57
Encoding: 263 7255 7
Width: 1054
VWidth: 2048
Flags: W
LayerCount: 2
Fore
SplineSet
521.799804688 626.599609375 m 0,0,1
 521.799804688 582.082207044 521.799804688 582.082207044 559 548.599609375 c 1,2,-1
 559 545.599609375 l 1,3,-1
 500.799804688 492.200195312 l 1,4,-1
 288.399414062 718.400390625 l 1,5,-1
 346.599609375 778.400390625 l 1,6,-1
 350.19921875 778.400390625 l 1,7,-1
 445.599609375 659 l 1,8,-1
 448.599609375 660.200195312 l 1,9,10
 458.939803708 719.284272488 458.939803708 719.284272488 496.081770232 754.2422339 c 128,-1,11
 533.223736756 789.200195312 533.223736756 789.200195312 596.799804688 789.200195312 c 0,12,13
 653.762081736 789.200195312 653.762081736 789.200195312 691.953967639 762.991449431 c 128,-1,14
 730.145853542 736.782703549 730.145853542 736.782703549 747.69921875 691.400390625 c 0,15,16
 760 659.599609375 760 659.599609375 760 618.799804688 c 0,17,18
 760 572.352690415 760 572.352690415 744.214700591 540.19929754 c 128,-1,19
 728.429401182 508.045904665 728.429401182 508.045904665 697 470 c 0,20,21
 632.543510023 391.97750044 632.543510023 391.97750044 533.5 302.900390625 c 0,22,23
 485.799804688 260 485.799804688 260 452.5 226.099609375 c 128,-1,24
 419.19921875 192.200195312 419.19921875 192.200195312 401.19921875 162.5 c 128,-1,25
 383.19921875 132.799804688 383.19921875 132.799804688 383.19921875 98.599609375 c 0,26,27
 383.19921875 50.3314504341 383.19921875 50.3314504341 412.02668954 18.7674102701 c 128,-1,28
 440.854160329 -12.7966298939 440.854160329 -12.7966298939 485.5 -27.099609375 c 0,29,30
 516.399414062 -37 516.399414062 -37 552.399414062 -37 c 0,31,32
 618.399414062 -37 618.399414062 -37 671.5 1.7001953125 c 128,-1,33
 724.599609375 40.400390625 724.599609375 40.400390625 766.599609375 129.200195312 c 1,34,-1
 770.19921875 129.200195312 l 1,35,-1
 839.799804688 73.400390625 l 1,36,37
 787.599609375 -26.2001953125 787.599609375 -26.2001953125 716.19921875 -74.2001953125 c 128,-1,38
 644.799804688 -122.200195312 644.799804688 -122.200195312 555.399414062 -122.200195312 c 0,39,40
 469.337839179 -122.200195312 469.337839179 -122.200195312 405.651290247 -84.8776868217 c 128,-1,41
 341.964741315 -47.5551783309 341.964741315 -47.5551783309 310 14.599609375 c 0,42,43
 288.399414062 56.599609375 288.399414062 56.599609375 288.399414062 107 c 0,44,45
 288.399414062 153.980406573 288.399414062 153.980406573 304.567749076 186.744440525 c 128,-1,46
 320.73608409 219.508474476 320.73608409 219.508474476 351.399414062 252.799804688 c 0,47,48
 386.076986689 290.44941816 386.076986689 290.44941816 477.249952942 375.637548258 c 128,-1,49
 568.422919196 460.825678357 568.422919196 460.825678357 609.399414062 507.799804688 c 0,50,51
 634 536 634 536 647.5 556.400390625 c 0,52,53
 670 590.399414062 670 590.399414062 670 623 c 0,54,55
 670 661.552629388 670 661.552629388 650.812050508 685.176217038 c 128,-1,56
 631.624101015 708.799804688 631.624101015 708.799804688 596.799804688 708.799804688 c 0,57,58
 562.296340661 708.799804688 562.296340661 708.799804688 542.048072674 685.971040017 c 128,-1,59
 521.799804688 663.142275346 521.799804688 663.142275346 521.799804688 626.599609375 c 0,0,1
EndSplineSet
Validated: 1
EndChar

StartChar: uni1C58
Encoding: 264 7256 8
Width: 1346
VWidth: 2048
Flags: W
LayerCount: 2
Fore
SplineSet
1024.59960938 136.200195312 m 1,0,1
 906.353784469 -94.2001953125 906.353784469 -94.2001953125 670 -94.2001953125 c 0,2,3
 571.499084791 -94.2001953125 571.499084791 -94.2001953125 498.81001777 -55.739438974 c 128,-1,4
 426.120950749 -17.2786826355 426.120950749 -17.2786826355 391.299804688 50.099609375 c 0,5,6
 368.200195312 94.7998046875 368.200195312 94.7998046875 368.200195312 149.400390625 c 2,7,-1
 368.200195312 640.200195312 l 2,8,9
 368.200195312 698.681599294 368.200195312 698.681599294 396.114114679 739.673815502 c 128,-1,10
 424.028034045 780.66603171 424.028034045 780.66603171 469.900390625 799.200195312 c 0,11,12
 499.599609375 811.200195312 499.599609375 811.200195312 532 811.200195312 c 0,13,14
 561.528565055 811.200195312 561.528565055 811.200195312 586.607350791 802.775639634 c 128,-1,15
 611.686136527 794.351083955 611.686136527 794.351083955 632.95031774 776.609791785 c 128,-1,16
 654.214498952 758.868499616 654.214498952 758.868499616 666.563044573 745.501377883 c 128,-1,17
 678.911590194 732.134256149 678.911590194 732.134256149 697.599609375 708.599609375 c 1,18,19
 746.556254405 765.914895597 746.556254405 765.914895597 785.799804688 789 c 0,20,21
 823.540859381 811.200195312 823.540859381 811.200195312 867.400390625 811.200195312 c 0,22,23
 924.779284728 811.200195312 924.779284728 811.200195312 965.247820755 783.011691043 c 128,-1,24
 1005.71635678 754.823186773 1005.71635678 754.823186773 1024.59960938 708.900390625 c 0,25,26
 1037.79980469 676.799804688 1037.79980469 676.799804688 1037.79980469 638.400390625 c 0,27,28
 1037.79980469 600.536170343 1037.79980469 600.536170343 1025.40062542 569.76016097 c 128,-1,29
 1013.00144615 538.984151598 1013.00144615 538.984151598 991.998140738 518.750169242 c 128,-1,30
 970.994835329 498.516186887 970.994835329 498.516186887 942.400390625 486.900390625 c 0,31,32
 913.599609375 475.200195312 913.599609375 475.200195312 880 475.200195312 c 0,33,34
 848.65298015 475.200195312 848.65298015 475.200195312 822.064911948 483.824065636 c 128,-1,35
 795.476843745 492.447935959 795.476843745 492.447935959 773.303585229 510.258569007 c 128,-1,36
 751.130326713 528.069202056 751.130326713 528.069202056 737.552064571 542.450615462 c 128,-1,37
 723.973802428 556.832028869 723.973802428 556.832028869 704.799804688 580.799804688 c 1,38,39
 632.799804688 480.599609375 632.799804688 480.599609375 586 410.400390625 c 128,-1,40
 539.200195312 340.200195312 539.200195312 340.200195312 511.599609375 290.700195312 c 128,-1,41
 484 241.200195312 484 241.200195312 473.200195312 207.299804688 c 128,-1,42
 462.400390625 173.400390625 462.400390625 173.400390625 462.400390625 145.799804688 c 0,43,44
 462.400390625 87.7757884483 462.400390625 87.7757884483 498.350136063 52.011063569 c 128,-1,45
 534.299881501 16.2463386897 534.299881501 16.2463386897 590.5 1.2001953125 c 0,46,47
 628.599609375 -9 628.599609375 -9 671.799804688 -9 c 0,48,49
 746.68534263 -9 746.68534263 -9 798.703714962 19.6791241709 c 128,-1,50
 850.722087294 48.3582483418 850.722087294 48.3582483418 892.599609375 100.5 c 0,51,52
 923.200195312 138.599609375 923.200195312 138.599609375 951.400390625 192 c 1,53,-1
 955 192 l 1,54,-1
 1024.59960938 136.200195312 l 1,0,1
535.599609375 726.599609375 m 0,55,56
 517.361584363 726.599609375 517.361584363 726.599609375 502.381656455 720.117808635 c 128,-1,57
 487.401728546 713.636007896 487.401728546 713.636007896 477.365961429 702.142582861 c 128,-1,58
 467.330194311 690.649157826 467.330194311 690.649157826 461.865292468 674.769550499 c 128,-1,59
 456.400390625 658.889943173 456.400390625 658.889943173 456.400390625 640.200195312 c 2,60,-1
 456.400390625 376.799804688 l 1,61,-1
 459.400390625 376.200195312 l 1,62,63
 522.955031907 484.050305693 522.955031907 484.050305693 652 652.200195312 c 1,64,65
 626.200195312 683.400390625 626.200195312 683.400390625 598.599609375 705 c 128,-1,66
 571 726.599609375 571 726.599609375 535.599609375 726.599609375 c 0,55,56
874 555 m 0,67,68
 909.995766031 555 909.995766031 555 930.997883016 579.109124169 c 128,-1,69
 952 603.218248337 952 603.218248337 952 640.799804688 c 0,70,71
 952 698.988497813 952 698.988497813 904.299804688 720.299804688 c 0,72,73
 890.200195312 726.599609375 890.200195312 726.599609375 874.599609375 726.599609375 c 0,74,75
 843.400390625 726.599609375 843.400390625 726.599609375 813.099609375 703.5 c 128,-1,76
 782.799804688 680.400390625 782.799804688 680.400390625 749.200195312 640.200195312 c 1,77,78
 795.294711498 579.438777143 795.294711498 579.438777143 838 561.900390625 c 0,79,80
 854.799804688 555 854.799804688 555 874 555 c 0,67,68
EndSplineSet
Validated: 1
EndChar

StartChar: uni1C59
Encoding: 265 7257 9
Width: 1299
VWidth: 2048
Flags: W
LayerCount: 2
Fore
SplineSet
853.599609375 76.599609375 m 1,0,1
 725.781550417 96.7830409662 725.781550417 96.7830409662 660.099609375 161.799804688 c 0,2,3
 604 217.33495002 604 217.33495002 604 292.599609375 c 0,4,5
 604 331.865270552 604 331.865270552 619.222462103 364.652600624 c 128,-1,6
 634.444924207 397.439930697 634.444924207 397.439930697 658.275660463 418.560492973 c 128,-1,7
 682.10639672 439.68105525 682.10639672 439.68105525 713.200195312 452.5 c 0,8,9
 747.400390625 466.599609375 747.400390625 466.599609375 789.400390625 466.599609375 c 0,10,11
 862.061486738 466.599609375 862.061486738 466.599609375 909.084612161 428.201200989 c 128,-1,12
 956.107737584 389.802792603 956.107737584 389.802792603 977.5 326.5 c 0,13,14
 992.200195312 283 992.200195312 283 992.200195312 230.200195312 c 0,15,16
 992.200195312 126.316624044 992.200195312 126.316624044 945.010329391 50.6413062127 c 128,-1,17
 897.820463469 -25.0340116186 897.820463469 -25.0340116186 819.700195312 -62.599609375 c 0,18,19
 764.799804688 -89 764.799804688 -89 695.799804688 -89 c 0,20,21
 555.426405276 -89 555.426405276 -89 451.599609375 13.900390625 c 0,22,23
 341.799804688 122.720466776 341.799804688 122.720466776 341.799804688 298 c 0,24,25
 341.799804688 445.736308597 341.799804688 445.736308597 424.599609375 579.400390625 c 0,26,27
 511.898908987 720.325996888 511.898908987 720.325996888 679 829 c 1,28,-1
 752.200195312 774.400390625 l 1,29,-1
 752.200195312 772 l 1,30,31
 596.690882013 658.790029862 596.690882013 658.790029862 520 544.900390625 c 0,32,33
 437.200195312 421.936696711 437.200195312 421.936696711 437.200195312 289 c 0,34,35
 437.200195312 149.74598634 437.200195312 149.74598634 519.700195312 70.599609375 c 0,36,37
 592.248989493 1 592.248989493 1 697.599609375 1 c 0,38,39
 798.472205417 1 798.472205417 1 854.799804688 73.599609375 c 1,40,-1
 853.599609375 76.599609375 l 1,0,1
895 145.599609375 m 1,41,42
 908.200195312 185.204101852 908.200195312 185.204101852 908.200195312 230.200195312 c 0,43,44
 908.200195312 278.066192447 908.200195312 278.066192447 891.161176231 314.355546301 c 128,-1,45
 874.12215715 350.644900155 874.12215715 350.644900155 843.400390625 368.200195312 c 0,46,47
 822.400390625 380.200195312 822.400390625 380.200195312 795.400390625 380.200195312 c 0,48,49
 761.666169196 380.200195312 761.666169196 380.200195312 737.660424485 362.900243442 c 128,-1,50
 713.654679774 345.600291571 713.654679774 345.600291571 702.400390625 318.400390625 c 0,51,52
 695.200195312 301 695.200195312 301 695.200195312 283.599609375 c 0,53,54
 695.200195312 237.597837826 695.200195312 237.597837826 736.599609375 201.099609375 c 0,55,56
 789.816243189 154.187464559 789.816243189 154.187464559 895 145.599609375 c 1,41,42
EndSplineSet
Validated: 1
EndChar

StartChar: uni1C5A
Encoding: 266 7258 10
Width: 1395
VWidth: 2048
Flags: W
LayerCount: 2
Fore
SplineSet
363.799804688 678.599609375 m 1,0,1
 479.851773506 825.599609375 479.851773506 825.599609375 652.400390625 825.599609375 c 0,2,3
 764.203330314 825.599609375 764.203330314 825.599609375 857.900390625 760.200195312 c 0,4,5
 997.592720708 662.694509438 997.592720708 662.694509438 1040.90039062 469.200195312 c 0,6,7
 1055 406.200195312 1055 406.200195312 1055 337.799804688 c 0,8,9
 1055 149.055571668 1055 149.055571668 956 28.2001953125 c 0,10,11
 858.685528968 -90.599609375 858.685528968 -90.599609375 710.599609375 -90.599609375 c 0,12,13
 550.412778631 -90.599609375 550.412778631 -90.599609375 454.400390625 55.2001953125 c 0,14,15
 422 104.400390625 422 104.400390625 400.400390625 171 c 1,16,-1
 875.599609375 615 l 1,17,18
 789.324575635 736.799804688 789.324575635 736.799804688 662.599609375 736.799804688 c 0,19,20
 605.984500137 736.799804688 605.984500137 736.799804688 558.706743432 716.42627295 c 128,-1,21
 511.428986726 696.052741213 511.428986726 696.052741213 479.599609375 663 c 1,22,-1
 479.599609375 659.400390625 l 1,23,-1
 609.799804688 464.400390625 l 1,24,-1
 592.400390625 439.200195312 l 1,25,-1
 350 439.200195312 l 1,26,-1
 350 525.599609375 l 1,27,-1
 468.200195312 525.599609375 l 1,28,-1
 468.200195312 528.599609375 l 1,29,-1
 363.799804688 675 l 1,30,-1
 363.799804688 678.599609375 l 1,0,1
958.400390625 339 m 0,31,32
 958.400390625 445.05613201 958.400390625 445.05613201 921.799804688 533.400390625 c 1,33,-1
 512 148.200195312 l 1,34,35
 545 73.2001953125 545 73.2001953125 594.200195312 35.7001953125 c 128,-1,36
 643.400390625 -1.7998046875 643.400390625 -1.7998046875 707 -1.7998046875 c 0,37,38
 813.074923207 -1.7998046875 813.074923207 -1.7998046875 884 90.900390625 c 0,39,40
 958.400390625 188.140751542 958.400390625 188.140751542 958.400390625 339 c 0,31,32
EndSplineSet
Validated: 1
EndChar

StartChar: uni1C5B
Encoding: 267 7259 11
Width: 1455
VWidth: 2048
Flags: W
LayerCount: 2
Fore
SplineSet
354 369.599609375 m 256,0,1
 354 566.750382337 354 566.750382337 459.299804688 696.299804688 c 0,2,3
 564.395030947 825.599609375 564.395030947 825.599609375 727.200195312 825.599609375 c 0,4,5
 890.604969053 825.599609375 890.604969053 825.599609375 995.700195312 696.299804688 c 0,6,7
 1101 566.750382337 1101 566.750382337 1101 369.599609375 c 128,-1,8
 1101 172.264599906 1101 172.264599906 995.700195312 40.7998046875 c 128,-1,9
 890.452759192 -90.599609375 890.452759192 -90.599609375 727.200195312 -90.599609375 c 0,10,11
 564.547240808 -90.599609375 564.547240808 -90.599609375 459.299804688 40.7998046875 c 128,-1,12
 354 172.264599906 354 172.264599906 354 369.599609375 c 256,0,1
451.200195312 369.599609375 m 0,13,14
 451.200195312 290.404401908 451.200195312 290.404401908 471.549134656 222.66667148 c 128,-1,15
 491.898073999 154.928941051 491.898073999 154.928941051 529.250363904 105.346443315 c 128,-1,16
 566.602653809 55.7639455785 566.602653809 55.7639455785 618 26.7001953125 c 0,17,18
 668.400390625 -1.7998046875 668.400390625 -1.7998046875 727.200195312 -1.7998046875 c 256,19,20
 845.418694005 -1.7998046875 845.418694005 -1.7998046875 924.299804688 105.299804688 c 128,-1,21
 1003.20019531 212.424844126 1003.20019531 212.424844126 1003.20019531 369.599609375 c 128,-1,22
 1003.20019531 526.599979883 1003.20019531 526.599979883 924.299804688 631.799804688 c 128,-1,23
 845.551367777 736.799804688 845.551367777 736.799804688 727.200195312 736.799804688 c 0,24,25
 609.788652073 736.799804688 609.788652073 736.799804688 530.400390625 631.799804688 c 0,26,27
 451.200195312 527.051293411 451.200195312 527.051293411 451.200195312 369.599609375 c 0,13,14
EndSplineSet
Validated: 1
EndChar

StartChar: uni1C5C
Encoding: 268 7260 12
Width: 1389
VWidth: 2048
Flags: W
LayerCount: 2
Fore
SplineSet
917.200195312 625.799804688 m 1,0,1
 840.355263188 736.799804688 840.355263188 736.799804688 716.799804688 736.799804688 c 0,2,3
 597.590540879 736.799804688 597.590540879 736.799804688 518.200195312 631.799804688 c 0,4,5
 439 527.051293411 439 527.051293411 439 369.599609375 c 0,6,7
 439 208.13618617 439 208.13618617 523.299804688 102.599609375 c 0,8,9
 606.692929342 -1.7998046875 606.692929342 -1.7998046875 732.400390625 -1.7998046875 c 0,10,11
 803.509531204 -1.7998046875 803.509531204 -1.7998046875 853.795045461 30.214812383 c 128,-1,12
 904.080559718 62.2294294536 904.080559718 62.2294294536 932.5 116.099609375 c 0,13,14
 952.599609375 154.200195312 952.599609375 154.200195312 960.400390625 202.200195312 c 1,15,-1
 957.400390625 203.400390625 l 1,16,17
 889.599609375 179.400390625 889.599609375 179.400390625 824.200195312 179.400390625 c 0,18,19
 748.901507237 179.400390625 748.901507237 179.400390625 693.569226153 208.306097724 c 128,-1,20
 638.23694507 237.211804824 638.23694507 237.211804824 612.099609375 288.599609375 c 0,21,22
 594.400390625 323.400390625 594.400390625 323.400390625 594.400390625 366.599609375 c 0,23,24
 594.400390625 413.182256636 594.400390625 413.182256636 613.854577094 449.474334255 c 128,-1,25
 633.308763563 485.766411874 633.308763563 485.766411874 663.084236977 507.175165382 c 128,-1,26
 692.859710392 528.58391889 692.859710392 528.58391889 733.299804688 541.799804688 c 0,27,28
 779.200195312 556.799804688 779.200195312 556.799804688 839.799804688 556.799804688 c 0,29,30
 959.797363237 556.799804688 959.797363237 556.799804688 1035.40039062 519 c 1,31,-1
 1036.59960938 516 l 1,32,-1
 1004.20019531 444 l 1,33,34
 926.204535276 467.400390625 926.204535276 467.400390625 842.799804688 467.400390625 c 0,35,36
 732.654992236 467.400390625 732.654992236 467.400390625 695.200195312 405.299804688 c 0,37,38
 683.799804688 386.400390625 683.799804688 386.400390625 683.799804688 364.200195312 c 256,39,40
 683.799804688 331.347118745 683.799804688 331.347118745 705.898744254 309.585849225 c 128,-1,41
 727.99768382 287.824579705 727.99768382 287.824579705 758.904569642 279.512387509 c 128,-1,42
 789.811455465 271.200195312 789.811455465 271.200195312 827.799804688 271.200195312 c 0,43,44
 914.979460025 271.200195312 914.979460025 271.200195312 1003.29980469 310.200195312 c 0,45,46
 1026.40039062 320.400390625 1026.40039062 320.400390625 1039.59960938 329.400390625 c 1,47,-1
 1043.20019531 329.400390625 l 1,48,49
 1052.20019531 287.773330605 1052.20019531 287.773330605 1052.20019531 243.599609375 c 0,50,51
 1052.20019531 130.202069947 1052.20019531 130.202069947 1000.81130093 50.9751612892 c 128,-1,52
 949.422406556 -28.2517473687 949.422406556 -28.2517473687 862.299804688 -65.400390625 c 0,53,54
 803.200195312 -90.599609375 803.200195312 -90.599609375 731.200195312 -90.599609375 c 0,55,56
 563.713417046 -90.599609375 563.713417046 -90.599609375 453.400390625 38.099609375 c 0,57,58
 341.799804688 168.30064094 341.799804688 168.30064094 341.799804688 370.200195312 c 0,59,60
 341.799804688 469.080689274 341.799804688 469.080689274 369.854781472 552.794066166 c 128,-1,61
 397.909758256 636.507443058 397.909758256 636.507443058 446.799804688 696 c 0,62,63
 553.302722792 825.599609375 553.302722792 825.599609375 715.599609375 825.599609375 c 0,64,65
 809.920772458 825.599609375 809.920772458 825.599609375 882.161528998 784.148636458 c 128,-1,66
 954.402285539 742.697663542 954.402285539 742.697663542 1003.59960938 674.400390625 c 1,67,-1
 1003 671.400390625 l 1,68,-1
 917.200195312 625.799804688 l 1,0,1
EndSplineSet
Validated: 1
EndChar

StartChar: uni1C5D
Encoding: 269 7261 13
Width: 1390
VWidth: 2048
Flags: W
LayerCount: 2
Fore
SplineSet
620 367.799804688 m 1,0,-1
 871.400390625 611.400390625 l 1,1,2
 830.448539157 693.29829794 830.448539157 693.29829794 729.799804688 720 c 0,3,4
 700.400390625 727.799804688 700.400390625 727.799804688 673.400390625 727.799804688 c 0,5,6
 592.4628128 727.799804688 592.4628128 727.799804688 530 661.799804688 c 0,7,8
 463.039810889 591.04980418 463.039810889 591.04980418 430.400390625 450 c 1,9,-1
 427.400390625 450 l 1,10,-1
 347 487.799804688 l 1,11,12
 376.533551341 636.650057098 376.533551341 636.650057098 467.599609375 729 c 0,13,14
 556.350428825 819 556.350428825 819 671 819 c 0,15,16
 762.953079913 819 762.953079913 819 846.200195312 762.900390625 c 0,17,18
 935.444551972 702.755761328 935.444551972 702.755761328 985.400390625 598.200195312 c 1,19,-1
 985.400390625 594.599609375 l 1,20,-1
 744.799804688 367.799804688 l 1,21,-1
 744.799804688 364.200195312 l 1,22,-1
 985.400390625 137.400390625 l 1,23,-1
 985.400390625 134.400390625 l 1,24,25
 926.670609734 20.3969550904 926.670609734 20.3969550904 844.099609375 -35.7001953125 c 0,26,27
 768.5918357 -87 768.5918357 -87 678.200195312 -87 c 0,28,29
 558.233005368 -87 558.233005368 -87 469.400390625 0.599609375 c 0,30,31
 379.099961609 89.6466879512 379.099961609 89.6466879512 347 244.200195312 c 1,32,-1
 427.400390625 282.599609375 l 1,33,-1
 430.400390625 282.599609375 l 1,34,35
 462.474351547 142.848646468 462.474351547 142.848646468 529.700195312 70.5 c 0,36,37
 591.305498648 4.2001953125 591.305498648 4.2001953125 673.400390625 4.2001953125 c 0,38,39
 765.723761649 4.2001953125 765.723761649 4.2001953125 835.099609375 70.7998046875 c 0,40,41
 857.599609375 92.400390625 857.599609375 92.400390625 871.400390625 120.599609375 c 1,42,-1
 620 364.200195312 l 1,43,-1
 620 367.799804688 l 1,0,-1
887 406.799804688 m 1,44,-1
 1058 406.799804688 l 1,45,-1
 1058 325.200195312 l 1,46,-1
 887 325.200195312 l 1,47,-1
 887 406.799804688 l 1,44,-1
EndSplineSet
Validated: 1
EndChar

StartChar: uni1C5E
Encoding: 270 7262 14
Width: 1232
VWidth: 2048
Flags: W
LayerCount: 2
Fore
SplineSet
438.400390625 186.400390625 m 1,0,-1
 438.400390625 -61.400390625 l 1,1,-1
 342.400390625 -61.400390625 l 1,2,-1
 342.400390625 811.599609375 l 1,3,-1
 438.400390625 811.599609375 l 1,4,-1
 438.400390625 701.200195312 l 1,5,-1
 442 701.200195312 l 1,6,-1
 668.200195312 834.400390625 l 1,7,-1
 671.799804688 834.400390625 l 1,8,9
 762.132670663 793.5768567 762.132670663 793.5768567 825.413424211 724.517188728 c 128,-1,10
 888.69417776 655.457520757 888.69417776 655.457520757 916.900390625 560.799804688 c 0,11,12
 934.599609375 501.400390625 934.599609375 501.400390625 934.599609375 438.400390625 c 0,13,14
 934.599609375 246.719443622 934.599609375 246.719443622 785.5 115 c 0,15,16
 736.599609375 71.7998046875 736.599609375 71.7998046875 671.799804688 39.400390625 c 1,17,-1
 668.200195312 39.400390625 l 1,18,-1
 442 186.400390625 l 1,19,-1
 438.400390625 186.400390625 l 1,0,-1
438.400390625 598 m 1,20,-1
 438.400390625 293.200195312 l 1,21,-1
 662.200195312 145.599609375 l 1,22,-1
 665.799804688 145.599609375 l 1,23,24
 791.938723303 217.430101923 791.938723303 217.430101923 827.200195312 352.599609375 c 0,25,26
 838 394 838 394 838 436.599609375 c 0,27,28
 838 572.245186802 838 572.245186802 742.299804688 669.700195312 c 0,29,30
 709.599609375 703 709.599609375 703 665.799804688 728.200195312 c 1,31,-1
 662.200195312 728.200195312 l 1,32,-1
 438.400390625 598 l 1,20,-1
EndSplineSet
Validated: 1
EndChar

StartChar: uni1C5F
Encoding: 271 7263 15
Width: 1633
VWidth: 2048
Flags: W
LayerCount: 2
Fore
SplineSet
1146 335.599609375 m 0,0,1
 1146 563.358426962 1146 563.358426962 1044.59960938 681.200195312 c 1,2,-1
 1041 681.200195312 l 1,3,-1
 967.799804688 591.799804688 l 1,4,5
 1013.40039062 479.648801311 1013.40039062 479.648801311 1013.40039062 338 c 0,6,7
 1013.40039062 148.373937365 1013.40039062 148.373937365 929.400390625 28.099609375 c 0,8,9
 846.217334136 -91 846.217334136 -91 714.599609375 -91 c 0,10,11
 582.735334371 -91 582.735334371 -91 501 25.099609375 c 0,12,13
 474.599609375 62.599609375 474.599609375 62.599609375 458.400390625 110.599609375 c 1,14,-1
 857.400390625 601.400390625 l 1,15,16
 825.599609375 672.200195312 825.599609375 672.200195312 781.200195312 703.700195312 c 128,-1,17
 736.799804688 735.200195312 736.799804688 735.200195312 686.400390625 735.200195312 c 0,18,19
 603.721598895 735.200195312 603.721598895 735.200195312 526.200195312 662.599609375 c 1,20,-1
 526.200195312 659 l 1,21,-1
 656.400390625 464 l 1,22,-1
 639 438.799804688 l 1,23,-1
 396.599609375 438.799804688 l 1,24,-1
 396.599609375 525.200195312 l 1,25,-1
 514.799804688 525.200195312 l 1,26,-1
 514.799804688 528.200195312 l 1,27,-1
 410.400390625 674.599609375 l 1,28,-1
 410.400390625 678.200195312 l 1,29,30
 488.209129714 786.072644673 488.209129714 786.072644673 602.700195312 815.900390625 c 0,31,32
 638.400390625 825.200195312 638.400390625 825.200195312 673.799804688 825.200195312 c 0,33,34
 824.084894209 825.200195312 824.084894209 825.200195312 920.400390625 678.799804688 c 1,35,-1
 1031.40039062 814.400390625 l 1,36,37
 1241.40039062 661.667871812 1241.40039062 661.667871812 1241.40039062 332.599609375 c 0,38,39
 1241.40039062 141.116071429 1241.40039062 141.116071429 1176.59960938 -7 c 0,40,41
 1155.59960938 -55 1155.59960938 -55 1128.59960938 -92.2001953125 c 1,42,-1
 1046.40039062 -38.2001953125 l 1,43,44
 1116.5547407 54.7114210589 1116.5547407 54.7114210589 1138.79980469 223.400390625 c 0,45,46
 1146 278 1146 278 1146 335.599609375 c 0,0,1
569.400390625 99.7998046875 m 1,47,48
 621.585673944 -2.2001953125 621.585673944 -2.2001953125 714.599609375 -2.2001953125 c 0,49,50
 802.281420844 -2.2001953125 802.281420844 -2.2001953125 859.200195312 91.400390625 c 0,51,52
 916.799804688 186.118498272 916.799804688 186.118498272 916.799804688 336.799804688 c 0,53,54
 916.799804688 423.719843758 916.799804688 423.719843758 897.599609375 501.799804688 c 1,55,-1
 894.599609375 502.400390625 l 1,56,-1
 569.400390625 99.7998046875 l 1,47,48
EndSplineSet
Validated: 1
EndChar

StartChar: uni1C60
Encoding: 272 7264 16
Width: 1228
VWidth: 2048
Flags: W
LayerCount: 2
Fore
SplineSet
433.599609375 548.599609375 m 1,0,-1
 437.200195312 548.599609375 l 1,1,-1
 664 695.599609375 l 1,2,-1
 667.599609375 695.599609375 l 1,3,4
 860.654469747 598.172112036 860.654469747 598.172112036 913.599609375 415.700195312 c 0,5,6
 930.400390625 357.799804688 930.400390625 357.799804688 930.400390625 296.599609375 c 0,7,8
 930.400390625 169.766525608 930.400390625 169.766525608 861.400390625 63.7998046875 c 0,9,10
 790.536974362 -45.0234344348 790.536974362 -45.0234344348 667.599609375 -99.400390625 c 1,11,-1
 664 -99.400390625 l 1,12,-1
 337.599609375 91.400390625 l 1,13,-1
 337.599609375 796.400390625 l 1,14,-1
 433.599609375 796.400390625 l 1,15,-1
 433.599609375 548.599609375 l 1,0,-1
433.599609375 440 m 1,16,-1
 433.599609375 137.599609375 l 1,17,-1
 657.400390625 8 l 1,18,-1
 661 8 l 1,19,20
 789.040538026 82.4007164496 789.040538026 82.4007164496 823.299804688 216.5 c 0,21,22
 833.799804688 257.599609375 833.799804688 257.599609375 833.799804688 298.400390625 c 0,23,24
 833.799804688 432.800790286 833.799804688 432.800790286 736.599609375 530.900390625 c 0,25,26
 704.200195312 563.599609375 704.200195312 563.599609375 661 588.200195312 c 1,27,-1
 657.400390625 588.200195312 l 1,28,-1
 433.599609375 440 l 1,16,-1
EndSplineSet
Validated: 1
EndChar

StartChar: uni1C61
Encoding: 273 7265 17
Width: 1310
VWidth: 2048
Flags: W
LayerCount: 2
Fore
SplineSet
989 343.200195312 m 0,0,1
 989 260.391465344 989 260.391465344 970.675679082 192.550001416 c 128,-1,2
 952.351358164 124.708537488 952.351358164 124.708537488 917.106620019 73.6458352139 c 128,-1,3
 881.861881873 22.5831329397 881.861881873 22.5831329397 836.838815683 -15.094137267 c 128,-1,4
 791.815749492 -52.7714074737 791.815749492 -52.7714074737 732.200195312 -83.400390625 c 1,5,-1
 729.200195312 -83.400390625 l 1,6,-1
 455.599609375 121.799804688 l 1,7,-1
 452 121.799804688 l 1,8,-1
 452 -66.599609375 l 1,9,-1
 356 -66.599609375 l 1,10,-1
 356 806.400390625 l 1,11,-1
 452 806.400390625 l 1,12,-1
 452 237.599609375 l 1,13,-1
 734 28.7998046875 l 1,14,-1
 737.599609375 28.7998046875 l 1,15,16
 891.799804688 120.036175132 891.799804688 120.036175132 891.799804688 341.400390625 c 0,17,18
 891.799804688 503.07097419 891.799804688 503.07097419 816.200195312 668.099609375 c 0,19,20
 791.599609375 721.799804688 791.599609375 721.799804688 759.799804688 770.400390625 c 1,21,-1
 759.799804688 772.799804688 l 1,22,-1
 833 830.400390625 l 1,23,24
 942.414290276 681.368516866 942.414290276 681.368516866 977.599609375 475.799804688 c 0,25,26
 989 409.200195312 989 409.200195312 989 343.200195312 c 0,0,1
EndSplineSet
Validated: 1
EndChar

StartChar: uni1C62
Encoding: 274 7266 18
Width: 1310
VWidth: 2048
Flags: W
LayerCount: 2
Fore
SplineSet
418.200195312 341.400390625 m 0,0,1
 418.200195312 120.036175132 418.200195312 120.036175132 572.400390625 28.7998046875 c 1,2,-1
 575.400390625 28.7998046875 l 1,3,-1
 858 237.599609375 l 1,4,-1
 858 806.400390625 l 1,5,-1
 954 806.400390625 l 1,6,-1
 954 -66.599609375 l 1,7,-1
 858 -66.599609375 l 1,8,-1
 858 121.799804688 l 1,9,-1
 854.400390625 121.799804688 l 1,10,-1
 580.799804688 -83.400390625 l 1,11,-1
 577.200195312 -83.400390625 l 1,12,13
 517.761633283 -52.8627976172 517.761633283 -52.8627976172 472.788268313 -15.1039560231 c 128,-1,14
 427.814903343 22.654885571 427.814903343 22.654885571 392.690083559 73.7649104832 c 128,-1,15
 357.565263775 124.874935395 357.565263775 124.874935395 339.282631887 192.706546558 c 128,-1,16
 321 260.538157721 321 260.538157721 321 343.200195312 c 0,17,18
 321 540.532138155 321 540.532138155 413.099609375 725.700195312 c 0,19,20
 441.599609375 783 441.599609375 783 477 830.400390625 c 1,21,-1
 550.200195312 772.799804688 l 1,22,-1
 550.200195312 770.400390625 l 1,23,24
 454.667660445 624.395180332 454.667660445 624.395180332 426.900390625 448.200195312 c 0,25,26
 418.200195312 393 418.200195312 393 418.200195312 341.400390625 c 0,0,1
EndSplineSet
Validated: 1
EndChar

StartChar: uni1C63
Encoding: 275 7267 19
Width: 1397
VWidth: 2048
Flags: W
LayerCount: 2
Fore
SplineSet
365 238.799804688 m 0,0,1
 365 305.269627494 365 305.269627494 385.400390625 374.400390625 c 1,2,-1
 389 374.400390625 l 1,3,4
 436.292636767 317.25538846 436.292636767 317.25538846 499.700195312 295.200195312 c 0,5,6
 520.400390625 288 520.400390625 288 540.200195312 288 c 0,7,8
 622.796676685 288 622.796676685 288 651.200195312 396.599609375 c 0,9,10
 661.400390625 435.599609375 661.400390625 435.599609375 661.400390625 492.599609375 c 0,11,12
 661.400390625 654.953784896 661.400390625 654.953784896 585.5 705.900390625 c 0,13,14
 563.599609375 720.599609375 563.599609375 720.599609375 539.599609375 720.599609375 c 0,15,16
 499.466833055 720.599609375 499.466833055 720.599609375 464 680.700195312 c 128,-1,17
 428.631463103 640.909306334 428.631463103 640.909306334 409.400390625 574.799804688 c 1,18,-1
 328.400390625 617.400390625 l 1,19,20
 360.749527226 717.79764367 360.749527226 717.79764367 420.200195312 768 c 0,21,22
 470.6475333 810.599609375 470.6475333 810.599609375 533.599609375 810.599609375 c 0,23,24
 627.01572106 810.599609375 627.01572106 810.599609375 690.799804688 721.799804688 c 0,25,26
 756.799804688 629.92005361 756.799804688 629.92005361 756.799804688 483 c 0,27,28
 756.799804688 342.254343251 756.799804688 342.254343251 697.099609375 265.5 c 0,29,30
 643.199547051 196.200195312 643.199547051 196.200195312 561.200195312 196.200195312 c 0,31,32
 506 196.200195312 506 196.200195312 454.400390625 229.200195312 c 1,33,-1
 451.400390625 227.400390625 l 1,34,35
 451.400390625 151.418637657 451.400390625 151.418637657 490.794754843 97.4835539479 c 128,-1,36
 530.189119061 43.5484702385 530.189119061 43.5484702385 592.400390625 17.7001953125 c 0,37,38
 635 0 635 0 685.400390625 0 c 0,39,40
 798.41509178 0 798.41509178 0 870.200195312 87.599609375 c 0,41,42
 946.400390625 180.591637846 946.400390625 180.591637846 946.400390625 340.200195312 c 0,43,44
 946.400390625 494.923581778 946.400390625 494.923581778 882.5 666.599609375 c 0,45,46
 862.400390625 720.599609375 862.400390625 720.599609375 837.799804688 768 c 1,47,-1
 837.799804688 770.400390625 l 1,48,-1
 911 828 l 1,49,50
 1005.41032024 675.89574876 1005.41032024 675.89574876 1034.90039062 459.299804688 c 0,51,52
 1043.59960938 395.400390625 1043.59960938 395.400390625 1043.59960938 339.599609375 c 0,53,54
 1043.59960938 194.168159799 1043.59960938 194.168159799 989.651877924 90.6205786787 c 128,-1,55
 935.704146473 -12.9270024415 935.704146473 -12.9270024415 836.599609375 -59.7001953125 c 0,56,57
 772.400390625 -90 772.400390625 -90 695.599609375 -90 c 0,58,59
 555.940506464 -90 555.940506464 -90 461.299804688 2.099609375 c 0,60,61
 365 95.8137749311 365 95.8137749311 365 238.799804688 c 0,0,1
EndSplineSet
Validated: 1
EndChar

StartChar: uni1C64
Encoding: 276 7268 20
Width: 1234
VWidth: 2048
Flags: W
LayerCount: 2
Fore
SplineSet
282.799804688 673.799804688 m 1,0,1
 335.949932594 743.524058481 335.949932594 743.524058481 417.725191858 785.76202924 c 128,-1,2
 499.500451123 828 499.500451123 828 602.599609375 828 c 0,3,4
 798.799804688 828 798.799804688 828 921.200195312 656.400390625 c 1,5,-1
 855.799804688 570 l 1,6,-1
 855.799804688 -66.599609375 l 1,7,-1
 761 -66.599609375 l 1,8,-1
 761 445.200195312 l 1,9,-1
 757.400390625 445.200195312 l 1,10,-1
 363.799804688 -81 l 1,11,-1
 288.200195312 -22.2001953125 l 1,12,-1
 801.799804688 663.599609375 l 1,13,14
 716.709769916 741.599609375 716.709769916 741.599609375 601.400390625 741.599609375 c 0,15,16
 526.400390625 741.599609375 526.400390625 741.599609375 466.400390625 709.799804688 c 128,-1,17
 406.400390625 678 406.400390625 678 356 618 c 1,18,-1
 353 618 l 1,19,-1
 282.799804688 673.799804688 l 1,0,1
EndSplineSet
Validated: 1
EndChar

StartChar: uni1C65
Encoding: 277 7269 21
Width: 1234
VWidth: 2048
Flags: W
LayerCount: 2
Fore
SplineSet
951.200195312 61.2001953125 m 1,0,1
 925.647887047 27.6797561962 925.647887047 27.6797561962 893.240349005 0.279762890333 c 128,-1,2
 860.832810964 -27.1202304155 860.832810964 -27.1202304155 821.021268569 -48.3443597716 c 128,-1,3
 781.209726174 -69.5684891276 781.209726174 -69.5684891276 732.670144865 -81.2842445638 c 128,-1,4
 684.130563557 -93 684.130563557 -93 631.400390625 -93 c 0,5,6
 435.200195312 -93 435.200195312 -93 312.799804688 78.599609375 c 1,7,-1
 378.200195312 165 l 1,8,-1
 378.200195312 801.599609375 l 1,9,-1
 473 801.599609375 l 1,10,-1
 473 289.799804688 l 1,11,-1
 476.599609375 289.799804688 l 1,12,-1
 870.200195312 816 l 1,13,-1
 945.799804688 757.200195312 l 1,14,-1
 432.200195312 71.400390625 l 1,15,16
 517.290230084 -6.599609375 517.290230084 -6.599609375 632.599609375 -6.599609375 c 0,17,18
 707.599609375 -6.599609375 707.599609375 -6.599609375 767.599609375 25.2001953125 c 128,-1,19
 827.599609375 57 827.599609375 57 878 117 c 1,20,-1
 881 117 l 1,21,-1
 951.200195312 61.2001953125 l 1,0,1
EndSplineSet
Validated: 1
EndChar

StartChar: uni1C66
Encoding: 278 7270 22
Width: 1545
VWidth: 2048
Flags: W
LayerCount: 2
Fore
SplineSet
475.200195312 358.799804688 m 0,0,1
 475.200195312 253.38605976 475.200195312 253.38605976 507.318761554 172.495197585 c 128,-1,2
 539.437327796 91.6043354106 539.437327796 91.6043354106 600 48 c 1,3,-1
 603.599609375 48 l 1,4,-1
 771 278.400390625 l 1,5,-1
 774.599609375 278.400390625 l 1,6,-1
 942 48 l 1,7,-1
 945 48 l 1,8,9
 985.243754142 77.5659122471 985.243754142 77.5659122471 1013.25530741 123.743053651 c 128,-1,10
 1041.26686068 169.920195054 1041.26686068 169.920195054 1055.53333268 229.409036356 c 128,-1,11
 1069.79980469 288.897877658 1069.79980469 288.897877658 1069.79980469 358.799804688 c 0,12,13
 1069.79980469 525.916118421 1069.79980469 525.916118421 979.5 678 c 0,14,15
 951 726 951 726 915 770.400390625 c 1,16,-1
 915 772.799804688 l 1,17,-1
 988.200195312 830.400390625 l 1,18,19
 1116.41965726 687.312274072 1116.41965726 687.312274072 1154.40039062 493.799804688 c 0,20,21
 1167 429.599609375 1167 429.599609375 1167 362.400390625 c 0,22,23
 1167 205.950463609 1167 205.950463609 1105.10342501 95.067276874 c 128,-1,24
 1043.20685003 -15.8159098613 1043.20685003 -15.8159098613 934.200195312 -83.400390625 c 1,25,-1
 930.599609375 -83.400390625 l 1,26,-1
 774.599609375 127.799804688 l 1,27,-1
 771 127.799804688 l 1,28,-1
 614.400390625 -83.400390625 l 1,29,-1
 610.799804688 -83.400390625 l 1,30,31
 501.418976153 -16.2549382548 501.418976153 -16.2549382548 439.709488076 94.6530367201 c 128,-1,32
 378 205.561011695 378 205.561011695 378 362.400390625 c 0,33,34
 378 560.611473719 378 560.611473719 482.400390625 730.5 c 0,35,36
 515.400390625 784.200195312 515.400390625 784.200195312 556.799804688 830.400390625 c 1,37,-1
 630 772.799804688 l 1,38,-1
 630 770.400390625 l 1,39,40
 517.099134645 631.154764968 517.099134645 631.154764968 486 472.200195312 c 0,41,42
 475.200195312 417 475.200195312 417 475.200195312 358.799804688 c 0,0,1
EndSplineSet
Validated: 1
EndChar

StartChar: uni1C67
Encoding: 279 7271 23
Width: 1228
VWidth: 2048
Flags: W
LayerCount: 2
Fore
SplineSet
794.400390625 186.400390625 m 1,0,-1
 790.799804688 186.400390625 l 1,1,-1
 564 39.400390625 l 1,2,-1
 560.400390625 39.400390625 l 1,3,4
 434.416257511 102.390558572 434.416257511 102.390558572 364.5 210.099609375 c 0,5,6
 297.599609375 313.164547359 297.599609375 313.164547359 297.599609375 438.400390625 c 0,7,8
 297.599609375 635.304595291 297.599609375 635.304595291 449.099609375 764.5 c 0,9,10
 498 806.200195312 498 806.200195312 560.400390625 834.400390625 c 1,11,-1
 564 834.400390625 l 1,12,-1
 890.400390625 643.599609375 l 1,13,-1
 890.400390625 -61.400390625 l 1,14,-1
 794.400390625 -61.400390625 l 1,15,-1
 794.400390625 186.400390625 l 1,0,-1
570.599609375 146.799804688 m 1,16,-1
 794.400390625 294.400390625 l 1,17,-1
 794.400390625 596.799804688 l 1,18,-1
 570.599609375 727 l 1,19,-1
 567 727 l 1,20,21
 439.476133736 654.621665224 439.476133736 654.621665224 404.700195312 518.5 c 0,22,23
 394.200195312 477.400390625 394.200195312 477.400390625 394.200195312 436.599609375 c 0,24,25
 394.200195312 302.199209714 394.200195312 302.199209714 491.400390625 204.099609375 c 0,26,27
 523.799804688 171.400390625 523.799804688 171.400390625 567 146.799804688 c 1,28,-1
 570.599609375 146.799804688 l 1,16,-1
EndSplineSet
Validated: 1
EndChar

StartChar: uni1C68
Encoding: 280 7272 24
Width: 1119
VWidth: 2048
Flags: W
LayerCount: 2
Fore
SplineSet
706.200195312 211.799804688 m 1,0,1
 726 269.964500513 726 269.964500513 726 330 c 0,2,3
 726 462.192971769 726 462.192971769 626.700195312 567.299804688 c 0,4,5
 518.095298502 682.255889235 518.095298502 682.255889235 302.400390625 748.799804688 c 1,6,-1
 302.400390625 751.200195312 l 1,7,-1
 345.599609375 830.400390625 l 1,8,9
 564.589576353 774.764716388 564.589576353 774.764716388 695.400390625 635.700195312 c 0,10,11
 823.200195312 499.834521119 823.200195312 499.834521119 823.200195312 331.799804688 c 0,12,13
 823.200195312 216.039404567 823.200195312 216.039404567 766.200195312 105.599609375 c 0,14,15
 702.571154345 -17.682062044 702.571154345 -17.682062044 590.400390625 -83.400390625 c 1,16,-1
 586.799804688 -83.400390625 l 1,17,-1
 436.200195312 87 l 1,18,-1
 432.599609375 87 l 1,19,-1
 328.799804688 -83.400390625 l 1,20,-1
 325.799804688 -83.400390625 l 1,21,-1
 250.799804688 -31.7998046875 l 1,22,-1
 415.799804688 239.400390625 l 1,23,-1
 419.400390625 239.400390625 l 1,24,-1
 592.200195312 49.2001953125 l 1,25,-1
 595.200195312 49.2001953125 l 1,26,27
 625.905204401 68.6457015564 625.905204401 68.6457015564 662.400390625 121.200195312 c 1,28,-1
 282 553.200195312 l 1,29,-1
 346.799804688 613.200195312 l 1,30,-1
 350.400390625 613.200195312 l 1,31,-1
 702.599609375 210.599609375 l 1,32,-1
 706.200195312 211.799804688 l 1,0,1
EndSplineSet
Validated: 1
EndChar

StartChar: uni1C69
Encoding: 281 7273 25
Width: 1222
VWidth: 2048
Flags: W
LayerCount: 2
Fore
SplineSet
427.400390625 537.200195312 m 1,0,-1
 654.200195312 695.599609375 l 1,1,-1
 657.799804688 695.599609375 l 1,2,3
 850.84018049 598.179421851 850.84018049 598.179421851 903.799804688 416.599609375 c 0,4,5
 920.599609375 359 920.599609375 359 920.599609375 297.799804688 c 0,6,7
 920.599609375 100.224833728 920.599609375 100.224833728 765.5 -29.7998046875 c 0,8,9
 715.400390625 -71.7998046875 715.400390625 -71.7998046875 651.799804688 -99.400390625 c 1,10,-1
 648.200195312 -99.400390625 l 1,11,-1
 316.400390625 87.7998046875 l 1,12,-1
 362 164 l 1,13,-1
 641.599609375 8 l 1,14,-1
 645.200195312 8 l 1,15,16
 777.931080944 83.3353239573 777.931080944 83.3353239573 812.900390625 214.700195312 c 0,17,18
 824 256.400390625 824 256.400390625 824 300.200195312 c 0,19,20
 824 432.801912474 824 432.801912474 733.099609375 530.900390625 c 0,21,22
 702.799804688 563.599609375 702.799804688 563.599609375 662.599609375 588.200195312 c 1,23,-1
 659 588.200195312 l 1,24,-1
 405.799804688 413 l 1,25,-1
 327.799804688 413 l 1,26,-1
 327.799804688 796.400390625 l 1,27,-1
 423.799804688 796.400390625 l 1,28,-1
 423.799804688 537.200195312 l 1,29,-1
 427.400390625 537.200195312 l 1,0,-1
EndSplineSet
Validated: 1
EndChar

StartChar: uni1C6A
Encoding: 282 7274 26
Width: 1398
VWidth: 2048
Flags: W
LayerCount: 2
Fore
SplineSet
920.400390625 313.200195312 m 1,0,-1
 1082.40039062 127.200195312 l 1,1,2
 992.280471795 -28.6273260744 992.280471795 -28.6273260744 818.400390625 -75.2998046875 c 0,3,4
 761.400390625 -90.599609375 761.400390625 -90.599609375 699.599609375 -90.599609375 c 0,5,6
 512.399414062 -90.599609375 512.399414062 -90.599609375 384.599609375 37.2001953125 c 0,7,8
 344.400390625 77.400390625 344.400390625 77.400390625 315.599609375 127.200195312 c 1,9,-1
 477.599609375 314.400390625 l 1,10,-1
 477.599609375 609.599609375 l 2,11,12
 477.599609375 681.734177652 477.599609375 681.734177652 514.818242237 732.6485742 c 128,-1,13
 552.0368751 783.562970747 552.0368751 783.562970747 611.099609375 808.5 c 0,14,15
 651.599609375 825.599609375 651.599609375 825.599609375 699 825.599609375 c 256,16,17
 792.497654271 825.599609375 792.497654271 825.599609375 857.099609375 762.299804688 c 0,18,19
 920.400390625 700.279067513 920.400390625 700.279067513 920.400390625 609.599609375 c 2,20,-1
 920.400390625 313.200195312 l 1,0,-1
828.599609375 609.599609375 m 2,21,22
 828.599609375 651.338927157 828.599609375 651.338927157 805.704018335 682.921690493 c 128,-1,23
 782.808427295 714.504453829 782.808427295 714.504453829 748.799804688 730.200195312 c 0,24,25
 725.400390625 741 725.400390625 741 699 741 c 256,26,27
 670.328652705 741 670.328652705 741 645.549469058 729.111454301 c 128,-1,28
 620.770285411 717.222908602 620.770285411 717.222908602 604.703385575 699.375164884 c 128,-1,29
 588.636485739 681.527421165 588.636485739 681.527421165 578.700195312 659.099609375 c 0,30,31
 568.200195312 635.400390625 568.200195312 635.400390625 568.200195312 609.599609375 c 2,32,-1
 568.200195312 319.799804688 l 2,33,34
 568.200195312 285.58213924 568.200195312 285.58213924 591.374770377 261.395357574 c 128,-1,35
 614.549345441 237.208575909 614.549345441 237.208575909 647.400390625 225.299804688 c 0,36,37
 671.400390625 216.599609375 671.400390625 216.599609375 698.400390625 216.599609375 c 256,38,39
 739.022038889 216.599609375 739.022038889 216.599609375 770.708075626 234.276986072 c 128,-1,40
 802.394112364 251.954362769 802.394112364 251.954362769 818.400390625 280.200195312 c 0,41,42
 828.599609375 298.200195312 828.599609375 298.200195312 828.599609375 317.400390625 c 2,43,-1
 828.599609375 609.599609375 l 2,21,22
432 124.799804688 m 1,44,45
 534.298095207 -1.2001953125 534.298095207 -1.2001953125 699 -1.2001953125 c 0,46,47
 864.190362097 -1.2001953125 864.190362097 -1.2001953125 966 124.200195312 c 1,48,-1
 885.599609375 213.599609375 l 1,49,50
 857.037897345 174.922028702 857.037897345 174.922028702 808.323084783 151.360916695 c 128,-1,51
 759.60827222 127.799804688 759.60827222 127.799804688 699 127.799804688 c 128,-1,52
 638.408113417 127.799804688 638.408113417 127.799804688 589.679766641 151.368149882 c 128,-1,53
 540.951419866 174.936495077 540.951419866 174.936495077 512.400390625 213.599609375 c 1,54,-1
 432 124.799804688 l 1,44,45
EndSplineSet
Validated: 1
EndChar

StartChar: uni1C6B
Encoding: 283 7275 27
Width: 1513
VWidth: 2048
Flags: W
LayerCount: 2
Fore
SplineSet
651.799804688 353.200195312 m 1,0,-1
 610.400390625 272.200195312 l 1,1,2
 487.76985166 285.826016094 487.76985166 285.826016094 422.900390625 344.799804688 c 0,3,4
 365.599609375 396.891081444 365.599609375 396.891081444 365.599609375 473.200195312 c 0,5,6
 365.599609375 523.599609375 365.599609375 523.599609375 392.900390625 577 c 0,7,8
 449.356321416 687.431880075 449.356321416 687.431880075 593.900390625 766.599609375 c 0,9,10
 666.200195312 806.200195312 666.200195312 806.200195312 756.200195312 829.599609375 c 1,11,12
 929.042788764 785.519036659 929.042788764 785.519036659 1041.20019531 679.299804688 c 0,13,14
 1092.20019531 631 1092.20019531 631 1119.79980469 577.299804688 c 128,-1,15
 1147.40039062 523.599609375 1147.40039062 523.599609375 1147.40039062 472.599609375 c 0,16,17
 1147.40039062 350.404100295 1147.40039062 350.404100295 1013.29980469 295.900390625 c 0,18,19
 966.799804688 277 966.799804688 277 902.599609375 272.200195312 c 1,20,-1
 861.200195312 353.200195312 l 1,21,-1
 863 355.599609375 l 1,22,23
 958.623755294 363.568564452 958.623755294 363.568564452 1008.5 397.900390625 c 0,24,25
 1052.59960938 428.254061896 1052.59960938 428.254061896 1052.59960938 475 c 0,26,27
 1052.59960938 504.400390625 1052.59960938 504.400390625 1033.40039062 541 c 0,28,29
 992.787758279 618.416216625 992.787758279 618.416216625 883.400390625 685 c 0,30,31
 828.200195312 718.599609375 828.200195312 718.599609375 756.200195312 742.599609375 c 1,32,33
 623.137574188 698.992181731 623.137574188 698.992181731 537.200195312 615.099609375 c 0,34,35
 499.400390625 578.200195312 499.400390625 578.200195312 479.900390625 541.599609375 c 128,-1,36
 460.400390625 505 460.400390625 505 460.400390625 474.400390625 c 0,37,38
 460.400390625 426.399714546 460.400390625 426.399714546 507.200195312 394 c 0,39,40
 557.661726911 359.063797517 557.661726911 359.063797517 650 355.599609375 c 1,41,-1
 651.799804688 353.200195312 l 1,0,-1
802.400390625 121 m 1,42,43
 764.037450807 81.400390625 764.037450807 81.400390625 693.799804688 81.400390625 c 0,44,45
 635 81.400390625 635 81.400390625 579.200195312 110.200195312 c 1,46,-1
 576.200195312 108.400390625 l 1,47,48
 589.973251944 72.8188526944 589.973251944 72.8188526944 613.497728397 47.0167406115 c 128,-1,49
 637.02220485 21.2146285286 637.02220485 21.2146285286 673.162248756 6.00721660804 c 128,-1,50
 709.302292663 -9.2001953125 709.302292663 -9.2001953125 754.400390625 -9.2001953125 c 0,51,52
 825.799804688 -9.2001953125 825.799804688 -9.2001953125 869.299804688 32.2001953125 c 128,-1,53
 912.799804688 73.599609375 912.799804688 73.599609375 938 161.799804688 c 1,54,-1
 941.599609375 161.799804688 l 1,55,-1
 1011.20019531 106 l 1,56,57
 963.845824541 -34.1701706691 963.845824541 -34.1701706691 847.099609375 -75.7998046875 c 0,58,59
 808.400390625 -89.599609375 808.400390625 -89.599609375 762.799804688 -89.599609375 c 0,60,61
 653.459723444 -89.599609375 653.459723444 -89.599609375 578.299804688 -19.099609375 c 0,62,63
 490.400390625 63.3478185217 490.400390625 63.3478185217 490.400390625 212.799804688 c 1,64,-1
 501.799804688 220 l 1,65,66
 567.737087873 177.064268797 567.737087873 177.064268797 638.299804688 166.299804688 c 0,67,68
 656 163.599609375 656 163.599609375 668 163.599609375 c 0,69,70
 702.091877497 163.599609375 702.091877497 163.599609375 710.599609375 179.200195312 c 1,71,-1
 710.599609375 560.200195312 l 1,72,-1
 802.400390625 560.200195312 l 1,73,-1
 802.400390625 121 l 1,42,43
EndSplineSet
Validated: 1
EndChar

StartChar: uni1C6C
Encoding: 284 7276 28
Width: 1545
VWidth: 2048
Flags: W
LayerCount: 2
Fore
SplineSet
1069.79980469 376.200195312 m 0,0,1
 1069.79980469 446.102863586 1069.79980469 446.102863586 1055.53356457 505.591378741 c 128,-1,2
 1041.26732446 565.079893895 1041.26732446 565.079893895 1013.25582368 611.256781895 c 128,-1,3
 985.244322912 657.433669894 985.244322912 657.433669894 945 687 c 1,4,-1
 941.400390625 687 l 1,5,-1
 774 456.599609375 l 1,6,-1
 770.400390625 456.599609375 l 1,7,-1
 603 687 l 1,8,-1
 600 687 l 1,9,10
 539.437348701 643.395679641 539.437348701 643.395679641 507.318772007 562.504471095 c 128,-1,11
 475.200195312 481.613262548 475.200195312 481.613262548 475.200195312 376.200195312 c 0,12,13
 475.200195312 209.083881579 475.200195312 209.083881579 565.5 57 c 0,14,15
 594 9 594 9 630 -35.400390625 c 1,16,-1
 630 -37.7998046875 l 1,17,-1
 556.799804688 -95.400390625 l 1,18,19
 428.580342745 47.6877259284 428.580342745 47.6877259284 390.599609375 241.200195312 c 0,20,21
 378 305.400390625 378 305.400390625 378 372.599609375 c 0,22,23
 378 588.952958175 378 588.952958175 506.400390625 732.299804688 c 0,24,25
 550.200195312 781.200195312 550.200195312 781.200195312 610.799804688 818.400390625 c 1,26,-1
 614.400390625 818.400390625 l 1,27,-1
 770.400390625 607.200195312 l 1,28,-1
 774 607.200195312 l 1,29,-1
 930.599609375 818.400390625 l 1,30,-1
 934.200195312 818.400390625 l 1,31,32
 1167 674.063753907 1167 674.063753907 1167 372.599609375 c 0,33,34
 1167 174.388526281 1167 174.388526281 1062.59960938 4.5 c 0,35,36
 1029.59960938 -49.2001953125 1029.59960938 -49.2001953125 988.200195312 -95.400390625 c 1,37,-1
 915 -37.7998046875 l 1,38,-1
 915 -35.400390625 l 1,39,40
 1027.7545027 103.664719509 1027.7545027 103.664719509 1059 262.5 c 0,41,42
 1069.79980469 317.400390625 1069.79980469 317.400390625 1069.79980469 376.200195312 c 0,0,1
EndSplineSet
Validated: 1
EndChar

StartChar: uni1C6D
Encoding: 285 7277 29
Width: 1397
VWidth: 2048
Flags: W
LayerCount: 2
Fore
SplineSet
1032 496.200195312 m 0,0,1
 1032 429.730372506 1032 429.730372506 1011.59960938 360.599609375 c 1,2,-1
 1008 360.599609375 l 1,3,4
 958.302559776 418.581079714 958.302559776 418.581079714 897.299804688 439.799804688 c 0,5,6
 876.599609375 447 876.599609375 447 856.799804688 447 c 0,7,8
 805.590444326 447 805.590444326 447 773.099609375 401.400390625 c 0,9,10
 735.599609375 348.767609357 735.599609375 348.767609357 735.599609375 242.400390625 c 0,11,12
 735.599609375 80.046215104 735.599609375 80.046215104 811.5 29.099609375 c 0,13,14
 833.400390625 14.400390625 833.400390625 14.400390625 857.400390625 14.400390625 c 0,15,16
 897.533166945 14.400390625 897.533166945 14.400390625 933 54.2998046875 c 0,17,18
 966.527006546 92.018905117 966.527006546 92.018905117 987.599609375 160.200195312 c 1,19,-1
 1068.59960938 117.599609375 l 1,20,21
 1036.25047277 17.2023563299 1036.25047277 17.2023563299 976.799804688 -33 c 0,22,23
 926.3524667 -75.599609375 926.3524667 -75.599609375 863.400390625 -75.599609375 c 0,24,25
 769.98427894 -75.599609375 769.98427894 -75.599609375 706.200195312 13.2001953125 c 0,26,27
 640.200195312 105.07994639 640.200195312 105.07994639 640.200195312 252 c 0,28,29
 640.200195312 392.745656749 640.200195312 392.745656749 699.900390625 469.5 c 0,30,31
 753.800452949 538.799804688 753.800452949 538.799804688 835.799804688 538.799804688 c 0,32,33
 891 538.799804688 891 538.799804688 942.599609375 505.799804688 c 1,34,-1
 945.599609375 507.599609375 l 1,35,36
 945.599609375 583.581362343 945.599609375 583.581362343 906.205245157 637.516446052 c 128,-1,37
 866.810880939 691.451529761 866.810880939 691.451529761 804.599609375 717.299804688 c 0,38,39
 762 735 762 735 711.599609375 735 c 0,40,41
 598.58490822 735 598.58490822 735 526.799804688 647.400390625 c 0,42,43
 450.599609375 554.408362154 450.599609375 554.408362154 450.599609375 394.799804688 c 0,44,45
 450.599609375 240.076418222 450.599609375 240.076418222 514.5 68.400390625 c 0,46,47
 534.599609375 14.400390625 534.599609375 14.400390625 559.200195312 -33 c 1,48,-1
 559.200195312 -35.400390625 l 1,49,-1
 486 -93 l 1,50,51
 391.589679763 59.1042512404 391.589679763 59.1042512404 362.099609375 275.700195312 c 0,52,53
 353.400390625 339.599609375 353.400390625 339.599609375 353.400390625 395.400390625 c 0,54,55
 353.400390625 540.831840201 353.400390625 540.831840201 407.348122076 644.379421321 c 128,-1,56
 461.295853527 747.927002442 461.295853527 747.927002442 560.400390625 794.700195312 c 0,57,58
 624.599609375 825 624.599609375 825 701.400390625 825 c 0,59,60
 841.059493536 825 841.059493536 825 935.700195312 732.900390625 c 0,61,62
 1032 639.186225069 1032 639.186225069 1032 496.200195312 c 0,0,1
EndSplineSet
Validated: 1
EndChar

StartChar: uni1C6E
Encoding: 286 7278 30
Width: 1204
VWidth: 2048
Flags: W
LayerCount: 2
Fore
SplineSet
407 72 m 1,0,1
 497.948942852 -4.2001953125 497.948942852 -4.2001953125 611 -4.2001953125 c 0,2,3
 664.846463221 -4.2001953125 664.846463221 -4.2001953125 711.195226729 13.2513811278 c 128,-1,4
 757.543990236 30.7029575682 757.543990236 30.7029575682 789.115369548 56.3396402773 c 128,-1,5
 820.686748859 81.9763229863 820.686748859 81.9763229863 851 119.400390625 c 1,6,-1
 854.599609375 119.400390625 l 1,7,-1
 924.200195312 64.2001953125 l 1,8,9
 841.522585378 -47.8756923726 841.522585378 -47.8756923726 702.5 -80.099609375 c 0,10,11
 657.200195312 -90.599609375 657.200195312 -90.599609375 608.599609375 -90.599609375 c 0,12,13
 412.400390625 -90.599609375 412.400390625 -90.599609375 285.799804688 81 c 1,14,-1
 794 670.799804688 l 1,15,16
 704.457265623 739.200195312 704.457265623 739.200195312 596.599609375 739.200195312 c 0,17,18
 522.200195312 739.200195312 522.200195312 739.200195312 463.400390625 705.299804688 c 128,-1,19
 404.599609375 671.400390625 404.599609375 671.400390625 353 603 c 1,20,-1
 350 603 l 1,21,-1
 279.799804688 659.400390625 l 1,22,23
 396.014173655 825.599609375 396.014173655 825.599609375 598.400390625 825.599609375 c 0,24,25
 791.748596754 825.599609375 791.748596754 825.599609375 918.200195312 666 c 1,26,-1
 407 72 l 1,0,1
EndSplineSet
Validated: 1
EndChar

StartChar: uni1C6F
Encoding: 287 7279 31
Width: 1407
VWidth: 2048
Flags: W
LayerCount: 2
Fore
SplineSet
450.599609375 649.200195312 m 1,0,1
 427.706586849 630.121900243 427.706586849 630.121900243 396.599609375 597.599609375 c 1,2,-1
 393.599609375 597.599609375 l 1,3,-1
 329.400390625 653.400390625 l 1,4,5
 419.827611063 775.201546206 419.827611063 775.201546206 595.5 813.599609375 c 0,6,7
 650.400390625 825.599609375 650.400390625 825.599609375 706.799804688 825.599609375 c 0,8,9
 921.140048713 825.599609375 921.140048713 825.599609375 1067.40039062 660 c 1,10,-1
 953.400390625 516 l 1,11,-1
 953.400390625 87.599609375 l 1,12,-1
 957 87 l 1,13,14
 984.527024213 107.644334787 984.527024213 107.644334787 1010.40039062 137.400390625 c 1,15,-1
 1014 137.400390625 l 1,16,-1
 1077.59960938 81.599609375 l 1,17,18
 1034.36413909 22.1510209881 1034.36413909 22.1510209881 965.870935287 -18.9043471615 c 128,-1,19
 897.377731485 -59.9597153111 897.377731485 -59.9597153111 812.099609375 -78.599609375 c 0,20,21
 757.200195312 -90.599609375 757.200195312 -90.599609375 700.799804688 -90.599609375 c 0,22,23
 485.330366269 -90.599609375 485.330366269 -90.599609375 339.599609375 74.400390625 c 1,24,-1
 453.599609375 216 l 1,25,-1
 453.599609375 648 l 1,26,-1
 450.599609375 649.200195312 l 1,0,1
458.400390625 75.599609375 m 1,27,28
 569.244668812 -6.599609375 569.244668812 -6.599609375 700.200195312 -6.599609375 c 0,29,30
 784.011799979 -6.599609375 784.011799979 -6.599609375 865.799804688 28.7998046875 c 1,31,-1
 865.799804688 553.200195312 l 1,32,-1
 948.599609375 660 l 1,33,34
 838.126700719 741.599609375 838.126700719 741.599609375 706.799804688 741.599609375 c 0,35,36
 621.766297363 741.599609375 621.766297363 741.599609375 541.200195312 706.200195312 c 1,37,-1
 541.200195312 178.200195312 l 1,38,-1
 458.400390625 75.599609375 l 1,27,28
EndSplineSet
Validated: 1
EndChar

StartChar: uni1C70
Encoding: 288 7280 32
Width: 1635
VWidth: 2048
Flags: W
LayerCount: 2
Fore
SplineSet
832.200195312 804.200195312 m 2,0,1
 895.219228959 804.200195312 895.219228959 804.200195312 951.866072156 788.225033038 c 128,-1,2
 1008.51291535 772.249870763 1008.51291535 772.249870763 1051.15890433 745.917179711 c 128,-1,3
 1093.80489331 719.584488658 1093.80489331 719.584488658 1128 683.299804688 c 0,4,5
 1242 562.333550347 1242 562.333550347 1242 372.200195312 c 0,6,7
 1242 163.358638449 1242 163.358638449 1115.40039062 7.400390625 c 0,8,9
 1074 -43.599609375 1074 -43.599609375 1020 -80.7998046875 c 1,10,-1
 970.200195312 -11.7998046875 l 1,11,-1
 970.200195312 -8.7998046875 l 1,12,13
 1104.22694161 101.169639864 1104.22694161 101.169639864 1137.59960938 265.099609375 c 0,14,15
 1147.79980469 315.200195312 1147.79980469 315.200195312 1147.79980469 365.599609375 c 0,16,17
 1147.79980469 477.822253332 1147.79980469 477.822253332 1103.3908963 558.914578351 c 128,-1,18
 1058.98198792 640.006903371 1058.98198792 640.006903371 981 682.099609375 c 0,19,20
 928.200195312 710.599609375 928.200195312 710.599609375 861.599609375 716.599609375 c 1,21,-1
 861.599609375 -68.7998046875 l 1,22,-1
 796.799804688 -68.7998046875 l 2,23,24
 618.744395557 -68.7998046875 618.744395557 -68.7998046875 505.200195312 52.400390625 c 0,25,26
 393 172.16376797 393 172.16376797 393 362.599609375 c 0,27,28
 393 571.259022975 393 571.259022975 518.700195312 726.799804688 c 0,29,30
 560.400390625 778.400390625 560.400390625 778.400390625 615 816.799804688 c 1,31,-1
 664.799804688 747.200195312 l 1,32,-1
 664.799804688 744.799804688 l 1,33,34
 529.573644154 631.547345004 529.573644154 631.547345004 497.099609375 468.200195312 c 0,35,36
 487.200195312 418.400390625 487.200195312 418.400390625 487.200195312 369.200195312 c 0,37,38
 487.200195312 257.259832897 487.200195312 257.259832897 530.303211573 176.709627133 c 128,-1,39
 573.406227833 96.1594213694 573.406227833 96.1594213694 650.099609375 53.599609375 c 0,40,41
 702 24.7998046875 702 24.7998046875 767.400390625 18.7998046875 c 1,42,-1
 767.400390625 804.200195312 l 1,43,-1
 832.200195312 804.200195312 l 2,0,1
EndSplineSet
Validated: 1
EndChar

StartChar: uni1C71
Encoding: 289 7281 33
Width: 1331
VWidth: 2048
Flags: W
LayerCount: 2
Fore
SplineSet
697.400390625 -4.2001953125 m 0,0,1
 776.761708393 -4.2001953125 776.761708393 -4.2001953125 835.175906518 28.6657441325 c 128,-1,2
 893.590104643 61.5316835775 893.590104643 61.5316835775 942.200195312 119.400390625 c 1,3,-1
 945.200195312 119.400390625 l 1,4,-1
 1014.79980469 64.2001953125 l 1,5,6
 930.399708244 -47.7250475796 930.399708244 -47.7250475796 789.799804688 -80.099609375 c 0,7,8
 744.200195312 -90.599609375 744.200195312 -90.599609375 695.599609375 -90.599609375 c 0,9,10
 500 -90.599609375 500 -90.599609375 377 81 c 1,11,-1
 442.400390625 163.799804688 l 1,12,-1
 442.400390625 649.799804688 l 1,13,-1
 440 651 l 1,14,15
 417.023961563 633.537612454 417.023961563 633.537612454 385.400390625 597.599609375 c 1,16,-1
 382.400390625 597.599609375 l 1,17,-1
 318.200195312 653.400390625 l 1,18,19
 404.737785397 774.919221457 404.737785397 774.919221457 575.900390625 813.599609375 c 0,20,21
 629 825.599609375 629 825.599609375 683.599609375 825.599609375 c 0,22,23
 892.585197151 825.599609375 892.585197151 825.599609375 1032.79980469 660 c 1,24,-1
 977 601.200195312 l 1,25,-1
 973.400390625 601.200195312 l 1,26,27
 955.400390625 621 955.400390625 621 935.599609375 639 c 1,28,-1
 491.599609375 76.2001953125 l 1,29,30
 581 -4.2001953125 581 -4.2001953125 697.400390625 -4.2001953125 c 0,0,1
683.599609375 741.599609375 m 0,31,32
 608.689765258 741.599609375 608.689765258 741.599609375 530 708.599609375 c 1,33,-1
 530 273.599609375 l 1,34,-1
 532.400390625 272.400390625 l 1,35,-1
 861.799804688 695.400390625 l 1,36,37
 770.722633907 741.599609375 770.722633907 741.599609375 683.599609375 741.599609375 c 0,31,32
EndSplineSet
Validated: 1
EndChar

StartChar: uni1C72
Encoding: 290 7282 34
Width: 1331
VWidth: 2048
Flags: W
LayerCount: 2
Fore
SplineSet
633.599609375 739.200195312 m 0,0,1
 579.160821154 739.200195312 579.160821154 739.200195312 531.974976086 721.690025365 c 128,-1,2
 484.789131018 704.179855418 484.789131018 704.179855418 452.505822968 678.593581617 c 128,-1,3
 420.222514918 653.007307816 420.222514918 653.007307816 388.799804688 615.599609375 c 1,4,-1
 385.799804688 615.599609375 l 1,5,-1
 316.200195312 670.799804688 l 1,6,7
 400.600291756 782.72504758 400.600291756 782.72504758 541.200195312 815.099609375 c 0,8,9
 586.799804688 825.599609375 586.799804688 825.599609375 635.400390625 825.599609375 c 0,10,11
 831 825.599609375 831 825.599609375 954 654 c 1,12,-1
 888.599609375 571.200195312 l 1,13,-1
 888.599609375 85.2001953125 l 1,14,-1
 891 84 l 1,15,16
 913.976038437 101.462387546 913.976038437 101.462387546 945.599609375 137.400390625 c 1,17,-1
 948.599609375 137.400390625 l 1,18,-1
 1012.79980469 81.599609375 l 1,19,20
 926.262214603 -39.9192214571 926.262214603 -39.9192214571 755.099609375 -78.599609375 c 0,21,22
 702 -90.599609375 702 -90.599609375 647.400390625 -90.599609375 c 0,23,24
 438.414802849 -90.599609375 438.414802849 -90.599609375 298.200195312 75 c 1,25,-1
 354 133.799804688 l 1,26,-1
 357.599609375 133.799804688 l 1,27,28
 375.599609375 114 375.599609375 114 395.400390625 96 c 1,29,-1
 839.400390625 658.799804688 l 1,30,31
 750 739.200195312 750 739.200195312 633.599609375 739.200195312 c 0,0,1
647.400390625 -6.599609375 m 0,32,33
 722.310234742 -6.599609375 722.310234742 -6.599609375 801 26.400390625 c 1,34,-1
 801 461.400390625 l 1,35,-1
 798.599609375 462.599609375 l 1,36,-1
 469.200195312 39.599609375 l 1,37,38
 560.277366093 -6.599609375 560.277366093 -6.599609375 647.400390625 -6.599609375 c 0,32,33
EndSplineSet
Validated: 1
EndChar

StartChar: uni1C73
Encoding: 291 7283 35
Width: 1397
VWidth: 2048
Flags: W
LayerCount: 2
Fore
SplineSet
921.200195312 183 m 1,0,1
 879.459736955 143.400390625 879.459736955 143.400390625 811.400390625 143.400390625 c 0,2,3
 737.826157493 143.400390625 737.826157493 143.400390625 685.20276912 179.500126395 c 128,-1,4
 632.579380747 215.599862165 632.579380747 215.599862165 607.099609375 273.900390625 c 0,5,6
 589.400390625 314.400390625 589.400390625 314.400390625 589.400390625 363 c 0,7,8
 589.400390625 412.075799529 589.400390625 412.075799529 606.574492643 452.664310831 c 128,-1,9
 623.748594661 493.252822132 623.748594661 493.252822132 651.792090303 519.844896586 c 128,-1,10
 679.835585945 546.436971041 679.835585945 546.436971041 717.200195312 562.200195312 c 0,11,12
 755.599609375 578.400390625 755.599609375 578.400390625 800 578.400390625 c 0,13,14
 882.200195312 578.400390625 882.200195312 578.400390625 933.799804688 522 c 1,15,-1
 936.799804688 523.799804688 l 1,16,17
 886.064481847 676.005773208 886.064481847 676.005773208 767 721.799804688 c 0,18,19
 728 736.799804688 728 736.799804688 684.799804688 736.799804688 c 0,20,21
 598.534569372 736.799804688 598.534569372 736.799804688 529.099609375 678 c 0,22,23
 460.678928476 620.057420971 460.678928476 620.057420971 428 519.599609375 c 1,24,-1
 425 518.400390625 l 1,25,-1
 334.400390625 550.799804688 l 1,26,27
 364.443317457 642.699031012 364.443317457 642.699031012 424.078751826 709.276945973 c 128,-1,28
 483.714186195 775.854860935 483.714186195 775.854860935 568.400390625 806.099609375 c 0,29,30
 623 825.599609375 623 825.599609375 684.200195312 825.599609375 c 0,31,32
 846.816425386 825.599609375 846.816425386 825.599609375 950 696.299804688 c 0,33,34
 1052.59960938 567.733831127 1052.59960938 567.733831127 1052.59960938 369.599609375 c 128,-1,35
 1052.59960938 171.266610942 1052.59960938 171.266610942 950 40.7998046875 c 0,36,37
 846.666984178 -90.599609375 846.666984178 -90.599609375 684.200195312 -90.599609375 c 0,38,39
 565.286877236 -90.599609375 565.286877236 -90.599609375 472.099609375 -16.7998046875 c 0,40,41
 379.29972225 56.6927914061 379.29972225 56.6927914061 337.400390625 178.799804688 c 1,42,-1
 424.400390625 219.599609375 l 1,43,-1
 427.400390625 218.400390625 l 1,44,45
 451.003969393 145.836603379 451.003969393 145.836603379 495.063347816 92.2386879493 c 128,-1,46
 539.122726239 38.6407725193 539.122726239 38.6407725193 601.700195312 13.7998046875 c 0,47,48
 641 -1.7998046875 641 -1.7998046875 684.799804688 -1.7998046875 c 0,49,50
 802.601098614 -1.7998046875 802.601098614 -1.7998046875 881.299804688 104.400390625 c 0,51,52
 906.200195312 138 906.200195312 138 924.200195312 180.599609375 c 1,53,-1
 921.200195312 183 l 1,0,1
816.200195312 229.200195312 m 0,54,55
 847.703156181 229.200195312 847.703156181 229.200195312 874.220474833 239.949275673 c 128,-1,56
 900.737793485 250.698356033 900.737793485 250.698356033 918.4697623 268.451037252 c 128,-1,57
 936.201731116 286.203718471 936.201731116 286.203718471 946.400390625 309.599609375 c 128,-1,58
 956.599609375 333 956.599609375 333 956.599609375 358.200195312 c 0,59,60
 956.599609375 402.340820935 956.599609375 402.340820935 932.019342655 434.713669632 c 128,-1,61
 907.439075936 467.086518329 907.439075936 467.086518329 870.5 483.599609375 c 0,62,63
 845 495 845 495 816.200195312 495 c 0,64,65
 786.234091988 495 786.234091988 495 760.810068144 483.783794746 c 128,-1,66
 735.386044301 472.567589491 735.386044301 472.567589491 718.62050388 454.811323869 c 128,-1,67
 701.854963459 437.055058246 701.854963459 437.055058246 691.700195312 414 c 0,68,69
 680.599609375 388.799804688 680.599609375 388.799804688 680.599609375 358.200195312 c 0,70,71
 680.599609375 327.853041975 680.599609375 327.853041975 691.460770576 303.316644809 c 128,-1,72
 702.321931778 278.780247643 702.321931778 278.780247643 720.135550147 263.112778307 c 128,-1,73
 737.949168516 247.445308971 737.949168516 247.445308971 761.900390625 238.5 c 0,74,75
 786.799804688 229.200195312 786.799804688 229.200195312 816.200195312 229.200195312 c 0,54,55
EndSplineSet
Validated: 1
EndChar

StartChar: uni1C74
Encoding: 292 7284 36
Width: 1310
VWidth: 2048
Flags: W
LayerCount: 2
Fore
SplineSet
891.799804688 393.599609375 m 0,0,1
 891.799804688 614.963824868 891.799804688 614.963824868 737.599609375 706.200195312 c 1,2,-1
 734.599609375 706.200195312 l 1,3,-1
 452 497.400390625 l 1,4,-1
 452 -71.400390625 l 1,5,-1
 356 -71.400390625 l 1,6,-1
 356 801.599609375 l 1,7,-1
 452 801.599609375 l 1,8,-1
 452 613.200195312 l 1,9,-1
 455.599609375 613.200195312 l 1,10,-1
 729.200195312 818.400390625 l 1,11,-1
 732.799804688 818.400390625 l 1,12,13
 792.238366717 787.862797617 792.238366717 787.862797617 837.211731687 750.103956023 c 128,-1,14
 882.185096657 712.345114429 882.185096657 712.345114429 917.309916441 661.235089517 c 128,-1,15
 952.434736225 610.125064605 952.434736225 610.125064605 970.717368113 542.293453442 c 128,-1,16
 989 474.461842279 989 474.461842279 989 391.799804688 c 0,17,18
 989 191.870812424 989 191.870812424 896.599609375 9 c 0,19,20
 867.799804688 -48 867.799804688 -48 833 -95.400390625 c 1,21,-1
 759.799804688 -37.7998046875 l 1,22,-1
 759.799804688 -35.400390625 l 1,23,24
 855.332339555 110.604819668 855.332339555 110.604819668 883.099609375 286.799804688 c 0,25,26
 891.799804688 342 891.799804688 342 891.799804688 393.599609375 c 0,0,1
EndSplineSet
Validated: 1
EndChar

StartChar: uni1C75
Encoding: 293 7285 37
Width: 1635
VWidth: 2048
Flags: W
LayerCount: 2
Fore
SplineSet
867.599609375 804.200195312 m 1,0,-1
 867.599609375 18.7998046875 l 1,1,2
 967.389460101 27.9547821828 967.389460101 27.9547821828 1033.65507788 86.2683665934 c 128,-1,3
 1099.92069567 144.581951004 1099.92069567 144.581951004 1128.59960938 236 c 0,4,5
 1147.79980469 297.200195312 1147.79980469 297.200195312 1147.79980469 369.200195312 c 0,6,7
 1147.79980469 529.874048301 1147.79980469 529.874048301 1051.79980469 659.299804688 c 0,8,9
 1018.20019531 704.599609375 1018.20019531 704.599609375 970.200195312 744.799804688 c 1,10,-1
 970.200195312 747.200195312 l 1,11,-1
 1020 816.799804688 l 1,12,13
 1097.87314292 762.032323866 1097.87314292 762.032323866 1151.45494219 678.958407938 c 128,-1,14
 1205.03674146 595.88449201 1205.03674146 595.88449201 1227.90039062 491.299804688 c 0,15,16
 1242 426.799804688 1242 426.799804688 1242 362.599609375 c 0,17,18
 1242 172.16376797 1242 172.16376797 1129.79980469 52.400390625 c 0,19,20
 1016.25560444 -68.7998046875 1016.25560444 -68.7998046875 838.200195312 -68.7998046875 c 2,21,-1
 773.400390625 -68.7998046875 l 1,22,-1
 773.400390625 716.599609375 l 1,23,24
 671.677041772 707.435424338 671.677041772 707.435424338 604.155448742 649.290246752 c 128,-1,25
 536.633855711 591.145069167 536.633855711 591.145069167 507 499.099609375 c 0,26,27
 487.200195312 437.599609375 487.200195312 437.599609375 487.200195312 365.599609375 c 0,28,29
 487.200195312 203.609088846 487.200195312 203.609088846 584.400390625 74.2998046875 c 0,30,31
 618 29.599609375 618 29.599609375 664.799804688 -8.7998046875 c 1,32,-1
 664.799804688 -11.7998046875 l 1,33,-1
 615 -80.7998046875 l 1,34,35
 563.6607011 -45.4325464227 563.6607011 -45.4325464227 522.570854127 3.10854860812 c 128,-1,36
 481.481007154 51.6496436389 481.481007154 51.6496436389 452.107154882 112.314752014 c 128,-1,37
 422.733302609 172.97986039 422.733302609 172.97986039 407.400390625 242.299804688 c 0,38,39
 393 307.400390625 393 307.400390625 393 372.200195312 c 0,40,41
 393 562.333550347 393 562.333550347 507 683.299804688 c 128,-1,42
 620.937929271 804.200195312 620.937929271 804.200195312 802.799804688 804.200195312 c 2,43,-1
 867.599609375 804.200195312 l 1,0,-1
EndSplineSet
Validated: 1
EndChar

StartChar: uni1C76
Encoding: 294 7286 38
Width: 1392
VWidth: 2048
Flags: W
LayerCount: 2
Fore
SplineSet
884 677 m 256,0,1
 884 707.661310727 884 707.661310727 904.413264243 728.030850676 c 128,-1,2
 924.826528485 748.400390625 924.826528485 748.400390625 955.400390625 748.400390625 c 0,3,4
 985.718337929 748.400390625 985.718337929 748.400390625 1006.25907131 727.82332473 c 128,-1,5
 1026.79980469 707.246258835 1026.79980469 707.246258835 1026.79980469 677 c 0,6,7
 1026.79980469 630.787231436 1026.79980469 630.787231436 982.700195312 611.299804688 c 0,8,9
 969.799804688 605.599609375 969.799804688 605.599609375 954.799804688 605.599609375 c 0,10,11
 924.538420997 605.599609375 924.538420997 605.599609375 904.269210499 626.136314104 c 128,-1,12
 884 646.673018832 884 646.673018832 884 677 c 256,0,1
946.400390625 334.400390625 m 0,13,14
 946.400390625 370.510468801 946.400390625 370.510468801 938.599609375 468.799804688 c 1,15,-1
 940.400390625 471.200195312 l 1,16,-1
 1032.20019531 486.799804688 l 1,17,18
 1043.59960938 401.927878501 1043.59960938 401.927878501 1043.59960938 333.799804688 c 0,19,20
 1043.59960938 188.368073138 1043.59960938 188.368073138 989.652041831 84.8207103618 c 128,-1,21
 935.704474288 -18.7266524142 935.704474288 -18.7266524142 836.599609375 -65.5 c 0,22,23
 772.400390625 -95.7998046875 772.400390625 -95.7998046875 695.599609375 -95.7998046875 c 0,24,25
 555.940506464 -95.7998046875 555.940506464 -95.7998046875 461.299804688 -3.7001953125 c 0,26,27
 365 90.0139702436 365 90.0139702436 365 233 c 0,28,29
 365 299.470690763 365 299.470690763 385.400390625 368.599609375 c 1,30,-1
 389 368.599609375 l 1,31,32
 436.298705433 311.450481836 436.298705433 311.450481836 499.700195312 289.400390625 c 0,33,34
 520.400390625 282.200195312 520.400390625 282.200195312 540.200195312 282.200195312 c 0,35,36
 622.796676685 282.200195312 622.796676685 282.200195312 651.200195312 390.799804688 c 0,37,38
 661.400390625 429.799804688 661.400390625 429.799804688 661.400390625 486.799804688 c 0,39,40
 661.400390625 649.156388128 661.400390625 649.156388128 585.5 700.099609375 c 0,41,42
 563.599609375 714.799804688 563.599609375 714.799804688 539.599609375 714.799804688 c 0,43,44
 499.466833055 714.799804688 499.466833055 714.799804688 464 674.900390625 c 128,-1,45
 428.631463103 635.109501646 428.631463103 635.109501646 409.400390625 569 c 1,46,-1
 328.400390625 611.599609375 l 1,47,48
 360.749959503 711.998204013 360.749959503 711.998204013 420.200195312 762.200195312 c 0,49,50
 470.6475333 804.799804688 470.6475333 804.799804688 533.599609375 804.799804688 c 0,51,52
 627.01425886 804.799804688 627.01425886 804.799804688 690.799804688 716 c 0,53,54
 756.799804688 624.120248923 756.799804688 624.120248923 756.799804688 477.200195312 c 0,55,56
 756.799804688 336.454538563 756.799804688 336.454538563 697.099609375 259.700195312 c 0,57,58
 643.20104665 190.400390625 643.20104665 190.400390625 561.200195312 190.400390625 c 0,59,60
 506 190.400390625 506 190.400390625 454.400390625 223.400390625 c 1,61,-1
 451.400390625 221.599609375 l 1,62,63
 451.400390625 145.618875396 451.400390625 145.618875396 490.795222396 91.6828631642 c 128,-1,64
 530.190054167 37.7468509319 530.190054167 37.7468509319 592.400390625 11.900390625 c 0,65,66
 635 -5.7998046875 635 -5.7998046875 685.400390625 -5.7998046875 c 0,67,68
 798.416714519 -5.7998046875 798.416714519 -5.7998046875 870.200195312 81.7998046875 c 0,69,70
 946.400390625 174.791833158 946.400390625 174.791833158 946.400390625 334.400390625 c 0,13,14
EndSplineSet
Validated: 1
EndChar

StartChar: uni1C77
Encoding: 295 7287 39
Width: 1498
VWidth: 2048
Flags: W
LayerCount: 2
Fore
SplineSet
1030.40039062 301 m 1,0,1
 991.898491547 294.400390625 991.898491547 294.400390625 950 294.400390625 c 0,2,3
 833.5717642 294.400390625 833.5717642 294.400390625 742.25550255 334.618888386 c 128,-1,4
 650.9392409 374.837386146 650.9392409 374.837386146 594.799804688 444.400390625 c 0,5,6
 536.599609375 516.517397201 536.599609375 516.517397201 536.599609375 602.799804688 c 0,7,8
 536.599609375 652.956033961 536.599609375 652.956033961 554.502008502 694.903852793 c 128,-1,9
 572.404407629 736.851671625 572.404407629 736.851671625 601.53448436 764.598771591 c 128,-1,10
 630.66456109 792.345871556 630.66456109 792.345871556 669.200195312 808.900390625 c 0,11,12
 711.799804688 827.200195312 711.799804688 827.200195312 765.799804688 827.200195312 c 0,13,14
 917.600377968 827.200195312 917.600377968 827.200195312 1022 688 c 0,15,16
 1070.08462086 623.886850121 1070.08462086 623.886850121 1098.24250574 535.834919224 c 128,-1,17
 1126.40039062 447.782988327 1126.40039062 447.782988327 1126.40039062 346.599609375 c 0,18,19
 1126.40039062 137.86118498 1126.40039062 137.86118498 1008.79980469 -0.7998046875 c 0,20,21
 968.599609375 -48.2001953125 968.599609375 -48.2001953125 913.400390625 -84.2001953125 c 1,22,-1
 909.799804688 -84.2001953125 l 1,23,-1
 741.799804688 80.2001953125 l 1,24,-1
 738.200195312 80.2001953125 l 1,25,-1
 593.599609375 -84.2001953125 l 1,26,-1
 590 -84.2001953125 l 1,27,28
 471.799804688 -28.400390625 471.799804688 -28.400390625 414.200195312 54.099609375 c 128,-1,29
 356.599609375 136.599609375 356.599609375 136.599609375 356.599609375 250.599609375 c 0,30,31
 356.599609375 339.324451454 356.599609375 339.324451454 396.200195312 460.599609375 c 1,32,-1
 480.799804688 421 l 1,33,-1
 480.799804688 418 l 1,34,35
 451.400390625 332.061835468 451.400390625 332.061835468 451.400390625 254.200195312 c 0,36,37
 451.400390625 175.291207286 451.400390625 175.291207286 482.204384108 117.245955136 c 128,-1,38
 513.008377592 59.2007029865 513.008377592 59.2007029865 567.200195312 35.7998046875 c 1,39,-1
 570.799804688 35.7998046875 l 1,40,-1
 732.200195312 214.599609375 l 1,41,-1
 735.799804688 214.599609375 l 1,42,-1
 915.200195312 35.7998046875 l 1,43,-1
 918.799804688 35.7998046875 l 1,44,45
 967.039971876 74.1451207899 967.039971876 74.1451207899 994.929834277 143.990252395 c 128,-1,46
 1022.81969668 213.835383999 1022.81969668 213.835383999 1030.40039062 301 c 1,0,1
952.400390625 383.799804688 m 0,47,48
 993.19921875 383.799804688 993.19921875 383.799804688 1030.40039062 389.799804688 c 1,49,50
 1018.5125241 538.398136235 1018.5125241 538.398136235 942.5 639.099609375 c 0,51,52
 867.544760591 738.400390625 867.544760591 738.400390625 771.799804688 738.400390625 c 0,53,54
 739.369600276 738.400390625 739.369600276 738.400390625 712.793258814 726.812833914 c 128,-1,55
 686.216917353 715.225277203 686.216917353 715.225277203 669.009325788 696.372680886 c 128,-1,56
 651.801734224 677.520084568 651.801734224 677.520084568 641.599609375 652.299804688 c 0,57,58
 630.799804688 625.599609375 630.799804688 625.599609375 630.799804688 593.200195312 c 0,59,60
 630.799804688 501.468796017 630.799804688 501.468796017 722.299804688 442.599609375 c 128,-1,61
 813.697279032 383.799804688 813.697279032 383.799804688 952.400390625 383.799804688 c 0,47,48
EndSplineSet
Validated: 1
EndChar

StartChar: uni1C78
Encoding: 296 7288 40
Width: 468
VWidth: 2048
Flags: W
LayerCount: 2
Fore
SplineSet
162.599609375 941 m 256,0,1
 162.599609375 971.66119228 162.599609375 971.66119228 183.012984888 992.030791452 c 128,-1,2
 203.426360401 1012.40039062 203.426360401 1012.40039062 234 1012.40039062 c 0,3,4
 264.318259623 1012.40039062 264.318259623 1012.40039062 284.859325124 991.823294908 c 128,-1,5
 305.400390625 971.246199191 305.400390625 971.246199191 305.400390625 941 c 0,6,7
 305.400390625 894.78618774 305.400390625 894.78618774 261.299804688 875.299804688 c 0,8,9
 248.400390625 869.599609375 248.400390625 869.599609375 233.400390625 869.599609375 c 0,10,11
 213.491771455 869.599609375 213.491771455 869.599609375 197.23681075 878.984371323 c 128,-1,12
 180.981850044 888.369133271 180.981850044 888.369133271 171.790729709 904.73165201 c 128,-1,13
 162.599609375 921.094170748 162.599609375 921.094170748 162.599609375 941 c 256,0,1
EndSplineSet
Validated: 1
EndChar

StartChar: uni1C79
Encoding: 297 7289 41
Width: 468
VWidth: 2048
Flags: W
LayerCount: 2
Fore
SplineSet
162.599609375 -216.799804688 m 256,0,1
 162.599609375 -196.45934692 162.599609375 -196.45934692 171.837575315 -179.971858368 c 128,-1,2
 181.075541255 -163.484369816 181.075541255 -163.484369816 197.43270389 -154.142087252 c 128,-1,3
 213.789866525 -144.799804688 213.789866525 -144.799804688 234 -144.799804688 c 0,4,5
 264.360638895 -144.799804688 264.360638895 -144.799804688 284.88051476 -165.582522593 c 128,-1,6
 305.400390625 -186.365240498 305.400390625 -186.365240498 305.400390625 -216.799804688 c 0,7,8
 305.400390625 -263.013616948 305.400390625 -263.013616948 261.299804688 -282.5 c 0,9,10
 248.400390625 -288.200195312 248.400390625 -288.200195312 234 -288.200195312 c 0,11,12
 203.33880772 -288.200195312 203.33880772 -288.200195312 182.969208548 -267.786819799 c 128,-1,13
 162.599609375 -247.373444286 162.599609375 -247.373444286 162.599609375 -216.799804688 c 256,0,1
EndSplineSet
Validated: 1
EndChar

StartChar: uni1C7A
Encoding: 298 7290 42
Width: 488
VWidth: 2048
Flags: W
LayerCount: 2
Fore
SplineSet
172.599609375 709.400390625 m 256,0,1
 172.599609375 740.061604212 172.599609375 740.061604212 193.013033059 760.43070445 c 128,-1,2
 213.426456743 780.799804688 213.426456743 780.799804688 244 780.799804688 c 0,3,4
 274.31816982 780.799804688 274.31816982 780.799804688 294.859280223 760.223110363 c 128,-1,5
 315.400390625 739.646416039 315.400390625 739.646416039 315.400390625 709.400390625 c 0,6,7
 315.400390625 663.186578365 315.400390625 663.186578365 271.299804688 643.700195312 c 0,8,9
 258.400390625 638 258.400390625 638 243.400390625 638 c 0,10,11
 223.49169901 638 223.49169901 638 207.236760499 647.38468469 c 128,-1,12
 190.981821989 656.76936938 190.981821989 656.76936938 181.790715682 673.131881915 c 128,-1,13
 172.599609375 689.494394449 172.599609375 689.494394449 172.599609375 709.400390625 c 256,0,1
172.599609375 14.599609375 m 256,14,15
 172.599609375 34.9405335967 172.599609375 34.9405335967 181.837405222 51.4279670939 c 128,-1,16
 191.07520107 67.915400591 191.07520107 67.915400591 207.432307575 77.257504983 c 128,-1,17
 223.78941408 86.599609375 223.78941408 86.599609375 244 86.599609375 c 0,18,19
 274.361347151 86.599609375 274.361347151 86.599609375 294.880868888 65.8172407378 c 128,-1,20
 315.400390625 45.0348721006 315.400390625 45.0348721006 315.400390625 14.599609375 c 0,21,22
 315.400390625 -31.6165647474 315.400390625 -31.6165647474 271.299804688 -51.099609375 c 0,23,24
 258.400390625 -56.7998046875 258.400390625 -56.7998046875 244 -56.7998046875 c 0,25,26
 213.338955748 -56.7998046875 213.338955748 -56.7998046875 192.969282562 -36.3868597849 c 128,-1,27
 172.599609375 -15.9739148823 172.599609375 -15.9739148823 172.599609375 14.599609375 c 256,14,15
EndSplineSet
Validated: 1
EndChar

StartChar: uni1C7B
Encoding: 299 7291 43
Width: 764
VWidth: 2048
Flags: W
LayerCount: 2
Fore
SplineSet
302.200195312 537.599609375 m 0,0,1
 282.915235458 537.599609375 282.915235458 537.599609375 269.401644164 529.403101082 c 128,-1,2
 255.88805287 521.20659279 255.88805287 521.20659279 250.60688392 513.224227101 c 128,-1,3
 245.325714971 505.241861413 245.325714971 505.241861413 235.599609375 486.599609375 c 1,4,-1
 232 486.599609375 l 1,5,-1
 185.799804688 528 l 1,6,7
 204.62018488 572.573057356 204.62018488 572.573057356 229.021562625 597.386626334 c 128,-1,8
 253.422940369 622.200195312 253.422940369 622.200195312 297.400390625 622.200195312 c 0,9,10
 329.03151563 622.200195312 329.03151563 622.200195312 396.099609375 601.5 c 0,11,12
 401.632003395 599.792525877 401.632003395 599.792525877 411.681445245 596.384313078 c 128,-1,13
 421.730887094 592.976100279 421.730887094 592.976100279 428.980402847 590.680914663 c 128,-1,14
 436.229918599 588.385729048 436.229918599 588.385729048 445.418567341 585.887581322 c 128,-1,15
 454.607216083 583.389433595 454.607216083 583.389433595 463.417868214 582.094619141 c 128,-1,16
 472.228520344 580.799804688 472.228520344 580.799804688 480.400390625 580.799804688 c 0,17,18
 501.397711901 580.799804688 501.397711901 580.799804688 514.184777145 591.25428585 c 128,-1,19
 526.97184239 601.708767012 526.97184239 601.708767012 540.400390625 623.400390625 c 1,20,-1
 544 623.400390625 l 1,21,-1
 578.200195312 568.799804688 l 1,22,23
 556 527.400390625 556 527.400390625 532 512.099609375 c 128,-1,24
 508 496.799804688 508 496.799804688 482.799804688 496.799804688 c 0,25,26
 457.003530762 496.799804688 457.003530762 496.799804688 395.799804688 517.200195312 c 128,-1,27
 334.6015625 537.599609375 334.6015625 537.599609375 302.200195312 537.599609375 c 0,0,1
EndSplineSet
Validated: 1
EndChar

StartChar: uni1C7C
Encoding: 300 7292 44
Width: 631
VWidth: 2048
Flags: W
LayerCount: 2
Fore
SplineSet
183.200195312 602.200195312 m 1,0,-1
 447.799804688 602.200195312 l 1,1,-1
 447.799804688 515.799804688 l 1,2,-1
 183.200195312 515.799804688 l 1,3,-1
 183.200195312 602.200195312 l 1,0,-1
EndSplineSet
Validated: 1
EndChar

StartChar: uni1C7D
Encoding: 301 7293 45
Width: 1071
VWidth: 2048
Flags: W
LayerCount: 2
Fore
SplineSet
782.799804688 355 m 0,0,1
 782.799804688 57.2366085123 782.799804688 57.2366085123 563.799804688 -84.2001953125 c 1,2,-1
 560.200195312 -84.2001953125 l 1,3,-1
 303.400390625 185.799804688 l 1,4,-1
 362.799804688 252.400390625 l 1,5,-1
 366.400390625 252.400390625 l 1,6,-1
 565.599609375 36.400390625 l 1,7,-1
 569.200195312 36.400390625 l 1,8,9
 616.430818048 73.3369196168 616.430818048 73.3369196168 645.997101939 138.671216552 c 128,-1,10
 675.56338583 204.005513487 675.56338583 204.005513487 685 285.400390625 c 1,11,12
 655 283 655 283 634 283 c 0,13,14
 481.179134487 283 481.179134487 283 371.5 382 c 0,15,16
 303.104258965 443.736249052 303.104258965 443.736249052 276.400390625 528.099609375 c 0,17,18
 263.200195312 569.799804688 263.200195312 569.799804688 263.200195312 614.200195312 c 0,19,20
 263.200195312 687.426766237 263.200195312 687.426766237 296.505145311 738.44456869 c 128,-1,21
 329.810095309 789.462371144 329.810095309 789.462371144 386.200195312 812.200195312 c 0,22,23
 423.400390625 827.200195312 423.400390625 827.200195312 467.200195312 827.200195312 c 0,24,25
 558.032240451 827.200195312 558.032240451 827.200195312 631.299804688 762.700195312 c 0,26,27
 739.832495609 667.154709234 739.832495609 667.154709234 772.299804688 480.700195312 c 0,28,29
 782.799804688 420.400390625 782.799804688 420.400390625 782.799804688 355 c 0,0,1
638.799804688 372.400390625 m 0,30,31
 659.812497616 372.400390625 659.812497616 372.400390625 688.599609375 374.799804688 c 1,32,33
 683.750800239 528.787484004 683.750800239 528.787484004 623.5 632.799804688 c 0,34,35
 562.329171712 738.400390625 562.329171712 738.400390625 473.200195312 738.400390625 c 0,36,37
 418.286285078 738.400390625 418.286285078 738.400390625 387.843337851 701.246996004 c 128,-1,38
 357.400390625 664.093601383 357.400390625 664.093601383 357.400390625 605.200195312 c 0,39,40
 357.400390625 509.894115116 357.400390625 509.894115116 435.099609375 442.299804688 c 0,41,42
 515.453100697 372.400390625 515.453100697 372.400390625 638.799804688 372.400390625 c 0,30,31
EndSplineSet
Validated: 1
EndChar

StartChar: uni1C7E
Encoding: 302 7294 46
Width: 510
VWidth: 2048
Flags: W
LayerCount: 2
Fore
SplineSet
207 570 m 1,0,-1
 303 570 l 1,1,-1
 303 165 l 1,2,-1
 207 165 l 1,3,-1
 207 570 l 1,0,-1
EndSplineSet
Validated: 1
EndChar

StartChar: uni1C7F
Encoding: 303 7295 47
Width: 884
VWidth: 2048
Flags: W
LayerCount: 2
Fore
SplineSet
281.799804688 570 m 1,0,-1
 377.799804688 570 l 1,1,-1
 377.799804688 165 l 1,2,-1
 281.799804688 165 l 1,3,-1
 281.799804688 570 l 1,0,-1
506.200195312 570 m 1,4,-1
 602.200195312 570 l 1,5,-1
 602.200195312 165 l 1,6,-1
 506.200195312 165 l 1,7,-1
 506.200195312 570 l 1,4,-1
EndSplineSet
Validated: 1
EndChar

StartChar: exclam
Encoding: 33 33 48
Width: 224
VWidth: 944
Flags: W
LayerCount: 2
Fore
SplineSet
187 607.599609375 m 2,0,-1
 160 -73.400390625 l 1,1,-1
 96.400390625 -73.400390625 l 1,2,-1
 59.2001953125 599.200195312 l 2,3,4
 59.2001953125 633.400390625 59.2001953125 633.400390625 79 655 c 128,-1,5
 98.7998046875 676.599609375 98.7998046875 676.599609375 125.799804688 676.599609375 c 0,6,7
 151.599609375 676.599609375 151.599609375 676.599609375 169.299804688 658 c 128,-1,8
 187 639.400390625 187 639.400390625 187 607.599609375 c 2,0,-1
194.799804688 -225.799804688 m 0,9,10
 194.799804688 -256.400390625 194.799804688 -256.400390625 177.400390625 -278 c 128,-1,11
 160 -299.599609375 160 -299.599609375 130.599609375 -299.599609375 c 0,12,13
 96.400390625 -299.599609375 96.400390625 -299.599609375 79 -278 c 128,-1,14
 61.599609375 -256.400390625 61.599609375 -256.400390625 61.599609375 -225.799804688 c 0,15,16
 61.599609375 -150.799804688 61.599609375 -150.799804688 130.599609375 -150.799804688 c 0,17,18
 157.599609375 -150.799804688 157.599609375 -150.799804688 176.200195312 -173.599609375 c 128,-1,19
 194.799804688 -196.400390625 194.799804688 -196.400390625 194.799804688 -225.799804688 c 0,9,10
EndSplineSet
Validated: 524289
EndChar

StartChar: quotedbl
Encoding: 34 34 49
Width: 347
VWidth: 1112
Flags: W
LayerCount: 2
Fore
SplineSet
172.200195312 728.599609375 m 1,0,-1
 111 569 l 1,1,-1
 178.200195312 482.599609375 l 1,2,-1
 221.400390625 569 l 1,3,-1
 172.200195312 733.400390625 l 1,4,-1
 172.200195312 728.599609375 l 1,0,-1
319.799804688 728.599609375 m 1,5,-1
 258 569 l 1,6,-1
 325.799804688 482.599609375 l 1,7,-1
 369 569 l 1,8,-1
 319.799804688 733.400390625 l 1,9,-1
 319.799804688 728.599609375 l 1,5,-1
EndSplineSet
Validated: 524297
EndChar

StartChar: numbersign
Encoding: 35 35 50
Width: 879
VWidth: 946
Flags: W
LayerCount: 2
Fore
SplineSet
463 504 m 1,0,-1
 385 318 l 1,1,-1
 205 318 l 1,2,-1
 193 270 l 1,3,-1
 361 270 l 1,4,-1
 301 150 l 1,5,-1
 199 150 l 1,6,-1
 205 90 l 1,7,-1
 271 90 l 1,8,-1
 193 -102 l 1,9,-1
 253 -102 l 1,10,-1
 325 72 l 1,11,-1
 487 72 l 1,12,-1
 385 -96 l 1,13,-1
 457 -114 l 1,14,-1
 559 72 l 1,15,-1
 679 72 l 1,16,-1
 679 144 l 1,17,-1
 607 138 l 1,18,-1
 667 252 l 1,19,-1
 775 258 l 1,20,-1
 787 324 l 1,21,-1
 685 324 l 1,22,-1
 745 498 l 1,23,-1
 679 504 l 1,24,-1
 619 336 l 1,25,-1
 445 330 l 1,26,-1
 511 492 l 1,27,-1
 463 504 l 1,0,-1
445 276 m 1,28,29
 589 282 589 282 595 270 c 1,30,-1
 535 144 l 1,31,-1
 373 144 l 1,32,-1
 445 276 l 1,28,29
EndSplineSet
Validated: 41
EndChar

StartChar: dollar
Encoding: 36 36 51
Width: 853
VWidth: 853
Flags: W
LayerCount: 2
Fore
SplineSet
535 618.25 m 1,0,-1
 595 618.25 l 1,1,-1
 595 562.75 l 1,2,3
 723 553.75 723 553.75 771.5 459.75 c 0,4,5
 794 417.75 794 417.75 794 361.25 c 1,6,-1
 713 361.25 l 1,7,8
 712 440.25 712 440.25 653.5 474.75 c 0,9,10
 629.5 489.25 629.5 489.25 595 491.25 c 1,11,-1
 595 236.25 l 1,12,13
 684.5 212.75 684.5 212.75 729.5 187.25 c 0,14,15
 815.5 137.75 815.5 137.75 816.5 29.25 c 1,16,17
 813 -99.75 813 -99.75 722 -157.75 c 0,18,19
 672 -187.75 672 -187.75 595 -193.75 c 1,20,-1
 595 -299.25 l 1,21,-1
 535 -299.25 l 1,22,-1
 535 -193.75 l 1,23,24
 377 -183.75 377 -183.75 333 -63.75 c 0,25,26
 319.5 -25.25 319.5 -25.25 319.5 21.75 c 0,27,28
 319.5 27.75 319.5 27.75 319.5 33.75 c 0,29,30
 319.5 38.25 319.5 38.25 320 42.75 c 1,31,-1
 400.5 42.75 l 1,32,-1
 404 15.25 l 2,33,34
 410 -45.75 410 -45.75 426.5 -64.75 c 1,35,36
 462 -113.75 462 -113.75 535 -123.25 c 1,37,-1
 535 155.25 l 1,38,39
 439.5 184.25 439.5 184.25 406 208.75 c 0,40,41
 333 260.75 333 260.75 333 358.25 c 0,42,43
 333 507.75 333 507.75 476.5 550.75 c 0,44,45
 503 558.75 503 558.75 535 562.75 c 1,46,-1
 535 618.25 l 1,0,-1
535 244.25 m 1,47,-1
 535 490.25 l 1,48,49
 436.5 476.75 436.5 476.75 419 399.25 c 1,50,-1
 416 368.25 l 1,51,52
 416 276.25 416 276.25 535 244.25 c 1,47,-1
595 146.25 m 1,53,-1
 595 -123.25 l 1,54,55
 657.5 -115.75 657.5 -115.75 689.5 -85.25 c 0,56,57
 732.5 -44.25 732.5 -44.25 732.5 17.25 c 0,58,59
 732.5 79.75 732.5 79.75 684.5 110.25 c 0,60,61
 654.5 128.75 654.5 128.75 595 146.25 c 1,53,-1
EndSplineSet
Validated: 524289
EndChar

StartChar: percent
Encoding: 37 37 52
Width: 698
VWidth: 930
Flags: W
LayerCount: 2
Fore
SplineSet
294.200195312 -277.799804688 m 1,0,-1
 243.799804688 -226.200195312 l 1,1,-1
 681.799804688 584.400390625 l 1,2,-1
 732.200195312 532.799804688 l 1,3,-1
 294.200195312 -277.799804688 l 1,0,-1
362.599609375 498 m 128,-1,5
 353 513.599609375 353 513.599609375 337.400390625 513.599609375 c 0,6,7
 319.400390625 513.599609375 319.400390625 513.599609375 310.099609375 497.400390625 c 128,-1,8
 300.799804688 481.200195312 300.799804688 481.200195312 300.799804688 459 c 0,9,10
 300.799804688 437.400390625 300.799804688 437.400390625 310.099609375 421.799804688 c 128,-1,11
 319.400390625 406.200195312 319.400390625 406.200195312 337.400390625 406.200195312 c 0,12,13
 353 406.200195312 353 406.200195312 362.599609375 423.299804688 c 128,-1,14
 372.200195312 440.400390625 372.200195312 440.400390625 372.200195312 459 c 0,15,4
 372.200195312 482.400390625 372.200195312 482.400390625 362.599609375 498 c 128,-1,5
424.400390625 456 m 0,16,17
 424.400390625 409.799804688 424.400390625 409.799804688 401.599609375 369 c 128,-1,18
 378.799804688 328.200195312 378.799804688 328.200195312 341 328.200195312 c 0,19,20
 298.400390625 328.200195312 298.400390625 328.200195312 275.599609375 365.700195312 c 128,-1,21
 252.799804688 403.200195312 252.799804688 403.200195312 252.799804688 456 c 0,22,23
 252.799804688 508.200195312 252.799804688 508.200195312 275.599609375 547.5 c 128,-1,24
 298.400390625 586.799804688 298.400390625 586.799804688 341 586.799804688 c 0,25,26
 378.799804688 586.799804688 378.799804688 586.799804688 401.599609375 549.299804688 c 128,-1,27
 424.400390625 511.799804688 424.400390625 511.799804688 424.400390625 456 c 0,16,17
646.099609375 -60 m 128,-1,29
 636.799804688 -44.400390625 636.799804688 -44.400390625 621.200195312 -44.400390625 c 0,30,31
 603.200195312 -44.400390625 603.200195312 -44.400390625 593.900390625 -60.599609375 c 128,-1,32
 584.599609375 -76.7998046875 584.599609375 -76.7998046875 584.599609375 -99 c 0,33,34
 584.599609375 -120.599609375 584.599609375 -120.599609375 593.900390625 -136.200195312 c 128,-1,35
 603.200195312 -151.799804688 603.200195312 -151.799804688 621.200195312 -151.799804688 c 0,36,37
 636.799804688 -151.799804688 636.799804688 -151.799804688 646.099609375 -134.700195312 c 128,-1,38
 655.400390625 -117.599609375 655.400390625 -117.599609375 655.400390625 -99 c 0,39,28
 655.400390625 -75.599609375 655.400390625 -75.599609375 646.099609375 -60 c 128,-1,29
707.599609375 -96 m 0,40,41
 707.599609375 -142.200195312 707.599609375 -142.200195312 685.099609375 -183 c 128,-1,42
 662.599609375 -223.799804688 662.599609375 -223.799804688 624.200195312 -223.799804688 c 0,43,44
 581.599609375 -223.799804688 581.599609375 -223.799804688 559.099609375 -186.299804688 c 128,-1,45
 536.599609375 -148.799804688 536.599609375 -148.799804688 536.599609375 -96 c 0,46,47
 536.599609375 -43.7998046875 536.599609375 -43.7998046875 559.099609375 -4.5 c 128,-1,48
 581.599609375 34.7998046875 581.599609375 34.7998046875 624.200195312 34.7998046875 c 0,49,50
 662.599609375 34.7998046875 662.599609375 34.7998046875 685.099609375 -2.7001953125 c 128,-1,51
 707.599609375 -40.2001953125 707.599609375 -40.2001953125 707.599609375 -96 c 0,40,41
EndSplineSet
Validated: 524289
EndChar

StartChar: ampersand
Encoding: 38 38 53
Width: 977
VWidth: 982
Flags: W
LayerCount: 2
Fore
SplineSet
657 -248.318359375 m 1,1,2
 423 -284.318359375 423 -284.318359375 279 -20.318359375 c 1,3,-1
 276 132.681640625 l 1,4,-1
 408 294.681640625 l 1,5,-1
 441 360.681640625 l 1,6,-1
 441 480.681640625 l 1,7,8
 285 525.681640625 285 525.681640625 279 615.681640625 c 1,9,10
 273 873.681640625 273 873.681640625 555 810.681640625 c 1,11,12
 780 768.681640625 780 768.681640625 693 444.681640625 c 1,13,-1
 603 465.681640625 l 1,14,15
 705 717.681640625 705 717.681640625 555 753.681640625 c 1,16,17
 300 846.681640625 300 846.681640625 351 627.681640625 c 1,18,19
 354 555.681640625 354 555.681640625 528 492.681640625 c 1,20,-1
 507 288.681640625 l 1,21,-1
 488.400390625 287.481445312 l 1,22,23
 336 108.681640625 336 108.681640625 339 -14.318359375 c 1,24,25
 492 -236.318359375 492 -236.318359375 705 -122.318359375 c 1,26,-1
 873.599609375 288.681640625 l 1,27,-1
 777.599609375 309.681640625 l 1,28,-1
 591 117.681640625 l 1,29,-1
 591 174.681640625 l 1,30,-1
 765.599609375 423.681640625 l 1,31,-1
 990 300.681640625 l 1,32,0
 777 -155.318359375 777 -155.318359375 657 -248.318359375 c 1,1,2
EndSplineSet
Validated: 524321
EndChar

StartChar: quotesingle
Encoding: 39 39 54
Width: 328
VWidth: 1204
Flags: W
LayerCount: 2
Fore
SplineSet
183 958.599609375 m 1,0,-1
 121.799804688 799 l 1,1,-1
 189 712.599609375 l 1,2,-1
 232.200195312 799 l 1,3,-1
 183 963.400390625 l 1,4,-1
 183 958.599609375 l 1,0,-1
EndSplineSet
Validated: 524297
EndChar

StartChar: parenleft
Encoding: 40 40 55
Width: 711
VWidth: 1132
Flags: W
LayerCount: 2
Fore
SplineSet
403.400390625 -58.7998046875 m 1,0,-1
 361.400390625 -108 l 1,1,2
 246.799804688 -23.400390625 246.799804688 -23.400390625 192.200195312 93 c 128,-1,3
 137.599609375 209.400390625 137.599609375 209.400390625 137.599609375 352.200195312 c 0,4,5
 137.599609375 602.400390625 137.599609375 602.400390625 347 828 c 1,6,-1
 398 784.200195312 l 1,7,8
 305 687 305 687 254 578.700195312 c 128,-1,9
 203 470.400390625 203 470.400390625 203 354 c 0,10,11
 203 198.599609375 203 198.599609375 264.200195312 96.599609375 c 0,12,13
 297.799804688 42 297.799804688 42 403.400390625 -58.7998046875 c 1,0,-1
EndSplineSet
Validated: 524289
EndChar

StartChar: parenright
Encoding: 41 41 56
Width: 632
VWidth: 1133
Flags: W
LayerCount: 2
Fore
SplineSet
592.400390625 352 m 0,0,1
 592.400390625 202 592.400390625 202 537.799804688 83.5 c 128,-1,2
 483.200195312 -35 483.200195312 -35 364.400390625 -124.400390625 c 1,3,-1
 320.599609375 -73.400390625 l 1,4,5
 429.799804688 34.599609375 429.799804688 34.599609375 461 85.599609375 c 0,6,7
 525.200195312 191.200195312 525.200195312 191.200195312 525.200195312 353.799804688 c 0,8,9
 525.200195312 472.599609375 525.200195312 472.599609375 473.900390625 584.799804688 c 128,-1,10
 422.599609375 697 422.599609375 697 327.799804688 799 c 1,11,-1
 377 846.400390625 l 1,12,13
 488.599609375 725.799804688 488.599609375 725.799804688 540.5 607.299804688 c 128,-1,14
 592.400390625 488.799804688 592.400390625 488.799804688 592.400390625 352 c 0,0,1
EndSplineSet
Validated: 524289
EndChar

StartChar: asterisk
Encoding: 42 42 57
Width: 777
VWidth: 912
Flags: W
LayerCount: 2
Fore
SplineSet
297.200195312 323.400390625 m 1,0,-1
 376.400390625 144.599609375 l 1,1,-1
 500.599609375 129 l 1,2,-1
 465.799804688 234 l 1,3,-1
 293 327 l 1,4,-1
 297.200195312 323.400390625 l 1,0,-1
751.400390625 108 m 1,5,-1
 569 177.599609375 l 1,6,-1
 470 100.799804688 l 1,7,-1
 569 51.599609375 l 1,8,-1
 756.799804688 108 l 1,9,-1
 751.400390625 108 l 1,5,-1
200.599609375 103.200195312 m 1,10,-1
 383 33 l 1,11,-1
 482 109.799804688 l 1,12,-1
 383 159.599609375 l 1,13,-1
 195.200195312 103.200195312 l 1,14,-1
 200.599609375 103.200195312 l 1,10,-1
680.599609375 -116.400390625 m 1,15,-1
 601.400390625 62.400390625 l 1,16,-1
 477.200195312 78 l 1,17,-1
 512 -27 l 1,18,-1
 684.799804688 -120 l 1,19,-1
 680.599609375 -116.400390625 l 1,15,-1
670.400390625 339 m 1,20,-1
 492.200195312 259.799804688 l 1,21,-1
 476.599609375 135.599609375 l 1,22,-1
 581 170.400390625 l 1,23,-1
 674.599609375 343.200195312 l 1,24,-1
 670.400390625 339 l 1,20,-1
305 -120 m 1,25,-1
 483.200195312 -40.7998046875 l 1,26,-1
 498.799804688 83.400390625 l 1,27,-1
 393.799804688 48.599609375 l 1,28,-1
 300.799804688 -124.200195312 l 1,29,-1
 305 -120 l 1,25,-1
EndSplineSet
Validated: 524293
EndChar

StartChar: plus
Encoding: 43 43 58
Width: 803
VWidth: 856
Flags: W
LayerCount: 2
Fore
SplineSet
250.599609375 -66 m 1,0,-1
 455.200195312 -67.7998046875 l 1,1,-1
 454 -342.599609375 l 1,2,-1
 511 -307.200195312 l 1,3,-1
 559 -272.400390625 l 1,4,-1
 559 -72.599609375 l 1,5,-1
 817.599609375 -72 l 1,6,-1
 758.200195312 27 l 1,7,-1
 559 27 l 1,8,-1
 559 282.599609375 l 1,9,-1
 460 217.200195312 l 1,10,-1
 460 27 l 1,11,-1
 174.400390625 27 l 1,12,-1
 250.599609375 -66 l 1,0,-1
EndSplineSet
Validated: 524297
EndChar

StartChar: comma
Encoding: 44 44 59
Width: 347
VWidth: 649
Flags: W
LayerCount: 2
Fore
SplineSet
137.767578125 -526.857421875 m 1,1,-1
 53.16796875 -636.658203125 l 1,2,3
 279.967773438 -547.857421875 279.967773438 -547.857421875 195.967773438 -485.158203125 c 128,-1,0
 111.967773438 -422.458007812 111.967773438 -422.458007812 137.767578125 -526.857421875 c 1,1,-1
EndSplineSet
Validated: 524329
EndChar

StartChar: hyphen
Encoding: 45 45 60
Width: 686
VWidth: 884
Flags: W
LayerCount: 2
Fore
SplineSet
539.799804688 7 m 1,0,-1
 220 7 l 1,1,-1
 254.200195312 73 l 1,2,-1
 580 73 l 1,3,-1
 539.799804688 7 l 1,0,-1
EndSplineSet
Validated: 524289
EndChar

StartChar: period
Encoding: 46 46 61
Width: 303
VWidth: 666
Flags: W
LayerCount: 2
Fore
SplineSet
196.200195312 -505.799804688 m 0,0,1
 196.200195312 -526.799804688 196.200195312 -526.799804688 182.400390625 -544.799804688 c 128,-1,2
 168.599609375 -562.799804688 168.599609375 -562.799804688 145.799804688 -562.799804688 c 0,3,4
 119.400390625 -562.799804688 119.400390625 -562.799804688 105.599609375 -546.299804688 c 128,-1,5
 91.7998046875 -529.799804688 91.7998046875 -529.799804688 91.7998046875 -505.799804688 c 0,6,7
 91.7998046875 -483 91.7998046875 -483 105.599609375 -465.599609375 c 128,-1,8
 119.400390625 -448.200195312 119.400390625 -448.200195312 145.799804688 -448.200195312 c 0,9,10
 168.599609375 -448.200195312 168.599609375 -448.200195312 182.400390625 -464.700195312 c 128,-1,11
 196.200195312 -481.200195312 196.200195312 -481.200195312 196.200195312 -505.799804688 c 0,0,1
EndSplineSet
Validated: 524289
EndChar

StartChar: slash
Encoding: 47 47 62
Width: 1035
VWidth: 929
Flags: W
LayerCount: 2
Fore
SplineSet
374.599609375 -278.599609375 m 1,0,-1
 305 -227 l 1,1,-1
 907.400390625 583.599609375 l 1,2,-1
 977 532 l 1,3,-1
 374.599609375 -278.599609375 l 1,0,-1
EndSplineSet
Validated: 524289
EndChar

StartChar: colon
Encoding: 58 58 63
Width: 548
VWidth: 1139
Flags: W
LayerCount: 2
Fore
SplineSet
276.400390625 572.599609375 m 0,0,1
 276.400390625 542 276.400390625 542 256.299804688 515.599609375 c 128,-1,2
 236.200195312 489.200195312 236.200195312 489.200195312 202.599609375 489.200195312 c 0,3,4
 163.599609375 489.200195312 163.599609375 489.200195312 143.5 513.5 c 128,-1,5
 123.400390625 537.799804688 123.400390625 537.799804688 123.400390625 572.599609375 c 0,6,7
 123.400390625 606.200195312 123.400390625 606.200195312 143.5 632 c 128,-1,8
 163.599609375 657.799804688 163.599609375 657.799804688 202.599609375 657.799804688 c 0,9,10
 236.200195312 657.799804688 236.200195312 657.799804688 256.299804688 633.5 c 128,-1,11
 276.400390625 609.200195312 276.400390625 609.200195312 276.400390625 572.599609375 c 0,0,1
241.599609375 45.2001953125 m 0,12,13
 241.599609375 20 241.599609375 20 225.099609375 -1.900390625 c 128,-1,14
 208.599609375 -23.7998046875 208.599609375 -23.7998046875 181 -23.7998046875 c 0,15,16
 148.599609375 -23.7998046875 148.599609375 -23.7998046875 132.099609375 -3.7001953125 c 128,-1,17
 115.599609375 16.400390625 115.599609375 16.400390625 115.599609375 45.2001953125 c 0,18,19
 115.599609375 72.2001953125 115.599609375 72.2001953125 132.099609375 93.5 c 128,-1,20
 148.599609375 114.799804688 148.599609375 114.799804688 181 114.799804688 c 0,21,22
 208.599609375 114.799804688 208.599609375 114.799804688 225.099609375 94.7001953125 c 128,-1,23
 241.599609375 74.599609375 241.599609375 74.599609375 241.599609375 45.2001953125 c 0,12,13
EndSplineSet
Validated: 524289
EndChar

StartChar: semicolon
Encoding: 59 59 64
Width: 653
VWidth: 1179
Flags: W
LayerCount: 2
Fore
SplineSet
352.727539062 678.599609375 m 0,0,1
 352.727539062 656.400390625 352.727539062 656.400390625 338.328125 637.5 c 128,-1,2
 323.927734375 618.599609375 323.927734375 618.599609375 299.927734375 618.599609375 c 0,3,4
 271.727539062 618.599609375 271.727539062 618.599609375 257.328125 636 c 128,-1,5
 242.927734375 653.400390625 242.927734375 653.400390625 242.927734375 678.599609375 c 0,6,7
 242.927734375 702.599609375 242.927734375 702.599609375 257.328125 720.900390625 c 128,-1,8
 271.727539062 739.200195312 271.727539062 739.200195312 299.927734375 739.200195312 c 0,9,10
 323.927734375 739.200195312 323.927734375 739.200195312 338.328125 721.799804688 c 128,-1,11
 352.727539062 704.400390625 352.727539062 704.400390625 352.727539062 678.599609375 c 0,0,1
286.727539062 204.599609375 m 1,13,-1
 199.727539062 91.7998046875 l 1,14,15
 433.127929688 183.599609375 433.127929688 183.599609375 346.427734375 248.099609375 c 128,-1,12
 259.727539062 312.599609375 259.727539062 312.599609375 286.727539062 204.599609375 c 1,13,-1
EndSplineSet
Validated: 524329
EndChar

StartChar: less
Encoding: 60 60 65
Width: 676
VWidth: 1130
Flags: W
LayerCount: 2
Fore
SplineSet
169 328 m 1,0,-1
 589 688 l 1,1,-1
 625 634 l 1,2,-1
 271 316 l 1,3,-1
 631 -50 l 1,4,-1
 577 -98 l 1,5,-1
 169 328 l 1,0,-1
EndSplineSet
Validated: 1
EndChar

StartChar: equal
Encoding: 61 61 66
Width: 961
VWidth: 1163
Flags: W
LayerCount: 2
Fore
SplineSet
369.799804688 135.200195312 m 1,0,-1
 836 135.200195312 l 1,1,-1
 786.200195312 237.799804688 l 1,2,-1
 311 237.799804688 l 1,3,-1
 369.799804688 135.200195312 l 1,0,-1
342.799804688 516.200195312 m 1,4,-1
 809 516.200195312 l 1,5,-1
 759.200195312 618.799804688 l 1,6,-1
 284 618.799804688 l 1,7,-1
 342.799804688 516.200195312 l 1,4,-1
EndSplineSet
Validated: 524289
EndChar

StartChar: greater
Encoding: 62 62 67
Width: 1096
VWidth: 1126
Flags: W
LayerCount: 2
Fore
SplineSet
1021 318 m 1,0,-1
 601 678 l 1,1,-1
 565 624 l 1,2,-1
 919 306 l 1,3,-1
 559 -60 l 1,4,-1
 613 -108 l 1,5,-1
 1021 318 l 1,0,-1
EndSplineSet
Validated: 9
EndChar

StartChar: question
Encoding: 63 63 68
Width: 907
VWidth: 1038
Flags: W
LayerCount: 2
Fore
SplineSet
887.799804688 662.599609375 m 0,0,1
 887.799804688 549.799804688 887.799804688 549.799804688 742.900390625 407.299804688 c 128,-1,2
 598 264.799804688 598 264.799804688 598 217.400390625 c 0,3,4
 598 172.400390625 598 172.400390625 622.599609375 139.400390625 c 0,5,6
 630.400390625 129.799804688 630.400390625 129.799804688 647.799804688 117.200195312 c 1,7,-1
 565 62 l 1,8,9
 545.200195312 84.7998046875 545.200195312 84.7998046875 538 99.7998046875 c 0,10,11
 508 152 508 152 508 212 c 0,12,13
 508 290 508 290 703 492.200195312 c 0,14,15
 793 584.599609375 793 584.599609375 793 662.599609375 c 0,16,17
 793 725 793 725 744.099609375 776.299804688 c 128,-1,18
 695.200195312 827.599609375 695.200195312 827.599609375 632.799804688 827.599609375 c 256,19,20
 570.400390625 827.599609375 570.400390625 827.599609375 526.599609375 793.700195312 c 128,-1,21
 482.799804688 759.799804688 482.799804688 759.799804688 472.599609375 712.400390625 c 0,22,23
 465.400390625 674.599609375 465.400390625 674.599609375 482.799804688 652.400390625 c 0,24,25
 493 639.799804688 493 639.799804688 512.799804688 632.599609375 c 1,26,27
 530.200195312 665 530.200195312 665 568 665 c 0,28,29
 637.599609375 665 637.599609375 665 637.599609375 592.400390625 c 0,30,31
 637.599609375 554.599609375 637.599609375 554.599609375 610.299804688 533.599609375 c 128,-1,32
 583 512.599609375 583 512.599609375 540.400390625 512.599609375 c 0,33,34
 482.799804688 512.599609375 482.799804688 512.599609375 437.799804688 557.599609375 c 0,35,36
 380.200195312 614.599609375 380.200195312 614.599609375 380.200195312 710 c 0,37,38
 380.200195312 797.599609375 380.200195312 797.599609375 456.400390625 858.799804688 c 128,-1,39
 532.599609375 920 532.599609375 920 630.400390625 920 c 0,40,41
 740.200195312 920 740.200195312 920 814 846.200195312 c 128,-1,42
 887.799804688 772.400390625 887.799804688 772.400390625 887.799804688 662.599609375 c 0,0,1
596.5 618.5 m 128,-1,44
 588.400390625 628.400390625 588.400390625 628.400390625 575.200195312 628.400390625 c 0,45,46
 559 628.400390625 559 628.400390625 551.200195312 618.799804688 c 128,-1,47
 543.400390625 609.200195312 543.400390625 609.200195312 543.400390625 594.799804688 c 256,48,49
 543.400390625 580.400390625 543.400390625 580.400390625 551.5 571.400390625 c 128,-1,50
 559.599609375 562.400390625 559.599609375 562.400390625 575.200195312 562.400390625 c 0,51,52
 604.599609375 562.400390625 604.599609375 562.400390625 604.599609375 594.200195312 c 0,53,43
 604.599609375 608.599609375 604.599609375 608.599609375 596.5 618.5 c 128,-1,44
682.599609375 -110.200195312 m 0,54,55
 682.599609375 -193 682.599609375 -193 605.200195312 -193 c 0,56,57
 565 -193 565 -193 544 -169.299804688 c 128,-1,58
 523 -145.599609375 523 -145.599609375 523 -107.799804688 c 0,59,60
 523 -70.599609375 523 -70.599609375 542.799804688 -45.400390625 c 128,-1,61
 562.599609375 -20.2001953125 562.599609375 -20.2001953125 605.200195312 -20.2001953125 c 0,62,63
 640 -20.2001953125 640 -20.2001953125 661.299804688 -46.599609375 c 128,-1,64
 682.599609375 -73 682.599609375 -73 682.599609375 -110.200195312 c 0,54,55
638.799804688 -69.7001953125 m 128,-1,66
 627.400390625 -55.599609375 627.400390625 -55.599609375 608.799804688 -55.599609375 c 0,67,68
 586 -55.599609375 586 -55.599609375 575.200195312 -68.7998046875 c 128,-1,69
 564.400390625 -82 564.400390625 -82 564.400390625 -102.400390625 c 256,70,71
 564.400390625 -122.799804688 564.400390625 -122.799804688 575.799804688 -135.400390625 c 128,-1,72
 587.200195312 -148 587.200195312 -148 608.799804688 -148 c 0,73,74
 650.200195312 -148 650.200195312 -148 650.200195312 -103.599609375 c 0,75,65
 650.200195312 -83.7998046875 650.200195312 -83.7998046875 638.799804688 -69.7001953125 c 128,-1,66
EndSplineSet
Validated: 524321
EndChar

StartChar: at
Encoding: 64 64 69
Width: 1156
VWidth: 1051
Flags: W
LayerCount: 2
Fore
SplineSet
679.256835938 210.442382812 m 1,0,-1
 477.65625 147.442382812 l 1,1,-1
 468.65625 4.0419921875 l 1,2,-1
 535.856445312 -144.158203125 l 1,3,-1
 675.056640625 -162.158203125 l 1,4,-1
 818.45703125 -40.9580078125 l 1,5,-1
 867.65625 -135.158203125 l 1,6,-1
 984.65625 -148.958007812 l 1,7,8
 1024.85644531 157.641601562 1024.85644531 157.641601562 871.856445312 337.041992188 c 128,-1,9
 718.856445312 516.442382812 718.856445312 516.442382812 547.556640625 464.841796875 c 128,-1,10
 376.256835938 413.2421875 376.256835938 413.2421875 305.756835938 190.041992188 c 128,-1,11
 235.256835938 -33.158203125 235.256835938 -33.158203125 507.65625 -282.158203125 c 1,12,-1
 618.65625 -249.158203125 l 1,13,14
 292.856445312 -57.158203125 292.856445312 -57.158203125 359.45703125 147.141601562 c 128,-1,15
 426.056640625 351.442382812 426.056640625 351.442382812 574.856445312 387.442382812 c 0,16,17
 723.056640625 423.442382812 723.056640625 423.442382812 830.756835938 268.942382812 c 128,-1,18
 938.45703125 114.442382812 938.45703125 114.442382812 908.45703125 -85.9580078125 c 1,19,-1
 773.45703125 134.2421875 l 1,20,-1
 724.256835938 98.2421875 l 1,21,-1
 787.256835938 1.6416015625 l 1,22,-1
 684.056640625 -81.158203125 l 1,23,-1
 607.856445312 -76.9580078125 l 1,24,-1
 549.056640625 17.2421875 l 1,25,-1
 562.856445312 125.2421875 l 1,26,-1
 688.256835938 170.2421875 l 1,27,-1
 679.256835938 210.442382812 l 1,0,-1
EndSplineSet
Validated: 524329
EndChar
